<svg id="svg" version="1.1" xmlns="http://www.w3.org/2000/svg" xmlns:xlink="http://www.w3.org/1999/xlink" width="400" height="400" viewBox="0, 0, 400,400"><g id="svgg"><path id="path0" d="M135.466 153.616 C 134.659 154.696,134.000 155.764,134.000 155.990 C 134.000 156.215,133.845 156.400,133.656 156.400 C 133.466 156.400,132.701 157.487,131.956 158.816 C 130.134 162.062,127.617 166.951,127.718 167.047 C 127.763 167.089,129.780 167.414,132.200 167.768 C 138.343 168.668,148.926 171.178,150.200 172.038 C 150.420 172.186,151.224 172.441,151.987 172.605 C 152.750 172.768,153.650 173.037,153.987 173.203 C 154.324 173.369,155.410 173.867,156.400 174.310 C 165.300 178.290,168.770 180.331,177.038 186.447 C 182.415 190.426,191.755 199.782,194.350 203.791 C 194.924 204.676,195.494 205.490,195.619 205.600 C 197.595 207.344,206.400 223.111,206.400 224.906 C 206.400 225.200,206.557 225.611,206.749 225.820 C 207.222 226.336,209.348 232.754,210.187 236.200 C 210.561 237.740,211.033 239.313,211.234 239.695 C 211.435 240.077,211.603 240.797,211.607 241.295 C 211.611 241.793,211.899 243.460,212.246 245.000 C 212.670 246.876,212.965 250.970,213.139 257.400 L 213.400 267.000 215.200 266.862 C 216.190 266.786,218.350 266.365,220.000 265.925 C 221.650 265.486,223.540 265.031,224.200 264.913 C 224.860 264.796,225.580 264.567,225.800 264.405 C 226.020 264.243,226.740 263.983,227.400 263.828 C 230.573 263.082,231.018 259.910,229.568 248.400 C 228.721 241.682,225.837 228.103,225.100 227.366 C 224.935 227.202,224.800 226.757,224.800 226.379 C 224.800 226.001,224.531 225.176,224.202 224.546 C 223.874 223.916,223.604 222.995,223.602 222.500 C 223.601 222.005,223.420 221.600,223.200 221.600 C 222.980 221.600,222.800 221.318,222.800 220.974 C 222.800 220.630,222.374 219.415,221.853 218.274 C 221.332 217.133,220.491 215.210,219.984 214.000 C 219.478 212.790,218.931 211.620,218.770 211.400 C 218.608 211.180,217.774 209.642,216.916 207.982 C 211.659 197.804,202.243 186.098,192.135 177.176 C 189.517 174.864,189.385 174.762,184.048 170.914 C 182.152 169.546,180.383 168.241,180.117 168.014 C 179.851 167.786,179.482 167.600,179.297 167.600 C 179.112 167.600,178.741 167.381,178.473 167.113 C 177.543 166.183,167.308 160.803,163.200 159.085 C 156.890 156.446,147.326 153.383,145.935 153.556 C 145.570 153.601,145.154 153.450,145.012 153.219 C 144.869 152.989,144.212 152.800,143.550 152.800 C 142.889 152.800,142.044 152.645,141.674 152.455 C 141.303 152.266,140.084 152.007,138.966 151.882 L 136.931 151.653 135.466 153.616 M266.400 167.587 C 265.850 167.765,264.140 168.300,262.600 168.775 C 252.813 171.796,243.545 176.288,234.200 182.541 C 228.313 186.480,225.358 188.888,219.158 194.800 L 217.271 196.600 219.419 200.200 C 220.601 202.180,222.430 205.550,223.484 207.688 C 225.803 212.393,225.116 212.397,229.856 207.650 C 235.014 202.485,243.031 196.268,248.400 193.268 C 252.075 191.215,258.520 188.020,260.200 187.418 C 261.300 187.025,262.767 186.454,263.460 186.151 C 264.154 185.848,264.921 185.600,265.166 185.600 C 265.411 185.600,265.923 185.435,266.305 185.233 C 266.687 185.032,268.080 184.567,269.400 184.201 C 273.660 183.020,273.901 182.879,273.699 181.676 C 273.224 178.854,270.080 169.905,268.965 168.203 C 268.268 167.139,267.989 167.072,266.400 167.587 M128.400 173.363 C 128.400 173.499,128.985 174.393,129.700 175.349 C 136.203 184.043,147.509 195.574,151.691 197.778 C 160.171 202.248,167.848 208.338,173.400 215.000 C 174.500 216.320,175.516 217.490,175.657 217.600 C 176.431 218.201,183.200 229.145,183.200 229.795 C 183.200 229.935,183.668 231.073,184.239 232.325 C 186.175 236.563,186.341 236.997,187.185 240.000 C 189.026 246.550,189.638 250.832,189.882 258.854 L 190.121 266.707 194.961 267.355 C 199.896 268.015,204.684 268.181,206.300 267.748 C 208.077 267.272,207.357 249.557,205.197 240.600 C 204.478 237.617,202.406 230.797,201.735 229.200 C 201.411 228.430,201.000 227.440,200.821 227.000 C 200.124 225.288,194.687 214.589,194.417 214.400 C 194.260 214.290,193.476 213.210,192.675 212.000 C 190.369 208.515,189.973 207.987,187.138 204.600 C 181.275 197.595,175.303 192.160,169.030 188.119 C 167.254 186.974,165.611 185.894,165.380 185.719 C 163.589 184.361,155.243 180.346,150.600 178.610 C 148.400 177.787,146.287 176.953,145.905 176.757 C 145.523 176.561,144.909 176.400,144.541 176.400 C 144.172 176.400,142.954 176.143,141.835 175.829 C 139.150 175.076,134.319 174.115,131.695 173.813 C 130.537 173.680,129.322 173.468,128.995 173.343 C 128.668 173.217,128.400 173.226,128.400 173.363 M122.672 180.300 C 112.762 219.519,133.367 259.804,171.084 274.952 C 174.962 276.510,181.075 278.262,187.200 279.572 C 198.073 281.898,220.391 279.792,229.537 275.577 C 253.184 264.679,265.536 252.680,275.015 231.400 C 277.417 226.009,277.372 224.801,274.942 229.447 C 255.087 267.423,211.245 283.663,172.629 267.344 C 169.769 266.136,168.635 265.582,164.749 263.493 C 151.256 256.243,138.771 236.730,129.114 207.800 C 125.527 197.053,123.844 189.892,126.436 196.400 C 139.118 228.249,151.503 247.562,164.129 255.179 C 166.074 256.352,166.166 256.248,167.602 251.258 C 170.305 241.867,170.313 228.796,167.618 225.000 C 167.462 224.780,167.094 223.970,166.801 223.200 C 165.625 220.114,162.594 216.448,157.384 211.810 C 144.392 200.243,132.974 188.658,125.145 179.100 C 123.528 177.125,123.467 177.154,122.672 180.300 M272.200 189.652 C 258.211 192.904,238.137 205.794,229.251 217.232 L 228.449 218.263 230.225 223.541 C 231.201 226.444,232.000 229.164,232.000 229.586 C 232.000 230.008,232.155 230.448,232.344 230.565 C 232.533 230.682,232.797 231.574,232.931 232.547 C 233.424 236.149,234.484 239.228,235.064 238.747 C 235.359 238.502,235.600 238.157,235.600 237.980 C 235.600 236.163,244.046 225.956,249.421 221.277 C 250.509 220.330,251.760 219.235,252.200 218.846 C 253.284 217.886,259.066 213.995,260.800 213.059 C 261.570 212.643,262.920 211.916,263.800 211.443 C 264.680 210.969,266.840 209.987,268.600 209.258 C 270.360 208.530,272.113 207.769,272.495 207.567 C 272.877 207.365,273.539 207.200,273.966 207.200 C 276.002 207.200,276.903 198.228,275.545 191.467 C 275.050 189.005,275.030 188.994,272.200 189.652 M273.400 213.867 C 271.720 214.233,265.557 217.185,262.000 219.328 C 255.821 223.051,248.141 230.247,243.993 236.200 C 243.227 237.300,242.500 238.290,242.379 238.400 C 241.508 239.187,237.347 247.180,237.019 248.695 C 236.865 249.408,236.572 250.094,236.369 250.219 C 235.923 250.495,235.883 258.796,236.325 259.492 C 236.747 260.156,243.618 256.465,246.955 253.782 C 254.165 247.983,258.748 243.475,262.328 238.661 C 263.498 237.087,264.671 235.530,264.934 235.200 C 265.594 234.375,268.000 230.436,268.000 230.182 C 268.000 230.068,268.698 228.743,269.552 227.237 C 270.405 225.731,271.475 223.441,271.929 222.149 C 272.383 220.857,273.215 218.641,273.777 217.224 C 274.340 215.807,274.800 214.412,274.800 214.124 C 274.800 213.584,274.747 213.574,273.400 213.867 M174.633 227.400 C 175.173 228.923,175.320 243.114,174.823 245.718 C 174.139 249.297,171.589 258.515,171.125 259.082 C 170.348 260.034,171.976 261.042,177.800 263.213 C 179.120 263.704,180.560 264.248,181.000 264.420 C 182.677 265.077,183.549 265.109,183.774 264.523 C 184.504 262.621,183.816 252.041,182.622 246.800 C 182.296 245.370,181.819 243.255,181.562 242.100 C 181.305 240.945,180.938 240.000,180.747 240.000 C 180.556 240.000,180.400 239.697,180.400 239.327 C 180.400 238.548,176.911 230.493,176.187 229.600 C 175.919 229.270,175.396 228.460,175.025 227.800 C 174.653 227.140,174.477 226.960,174.633 227.400 " stroke="none" fill="#4e9143" fill-rule="evenodd"></path><path id="path1" d="M0.000 200.000 L 0.000 400.000 200.000 400.000 L 400.000 400.000 400.000 200.000 L 400.000 0.000 200.000 0.000 L 0.000 0.000 0.000 200.000 M206.000 118.797 C 211.620 119.460,216.196 120.350,218.400 121.207 C 219.610 121.678,221.209 122.244,221.952 122.465 C 229.961 124.843,242.089 134.378,247.834 142.813 C 248.953 144.456,250.348 146.500,250.934 147.356 C 251.520 148.212,252.000 149.146,252.000 149.432 C 252.000 149.718,252.740 151.538,253.644 153.476 C 257.884 162.567,257.760 165.385,253.037 167.152 C 251.798 167.616,249.893 168.446,248.805 168.998 C 247.717 169.549,246.595 170.000,246.312 170.000 C 246.029 170.000,244.911 170.630,243.828 171.400 C 242.745 172.170,241.600 172.800,241.284 172.800 C 240.465 172.800,230.375 179.007,230.067 179.700 C 229.993 179.865,229.755 180.000,229.536 180.000 C 228.718 180.000,220.665 186.640,216.085 191.091 C 215.118 192.031,214.005 192.800,213.611 192.800 C 212.959 192.800,210.348 190.038,209.962 188.939 C 209.255 186.926,195.043 172.823,190.378 169.504 C 183.830 164.845,181.858 163.508,180.176 162.583 C 179.089 161.985,177.930 161.266,177.600 160.984 C 177.270 160.702,174.750 159.360,172.000 158.002 C 169.250 156.645,166.550 155.304,166.000 155.023 C 164.682 154.350,159.879 152.536,155.400 151.019 C 150.509 149.363,150.421 148.662,154.423 143.200 C 155.310 141.990,156.452 140.370,156.961 139.600 C 165.317 126.962,189.229 116.818,206.000 118.797 M141.800 151.412 C 145.664 152.140,148.451 152.786,149.400 153.173 C 150.733 153.718,154.631 154.800,155.260 154.800 C 155.585 154.800,156.783 155.250,157.923 155.800 C 159.063 156.350,160.171 156.800,160.384 156.800 C 161.819 156.800,172.064 161.874,177.896 165.473 C 180.148 166.863,182.164 168.000,182.376 168.000 C 182.587 168.000,182.904 168.243,183.080 168.541 C 183.256 168.839,184.047 169.514,184.838 170.041 C 187.439 171.775,190.400 174.070,190.400 174.351 C 190.400 174.503,190.925 174.937,191.566 175.316 C 195.520 177.652,213.200 197.498,213.200 199.601 C 213.200 199.820,213.344 200.000,213.520 200.000 C 213.696 200.000,214.239 200.765,214.726 201.700 C 215.213 202.635,216.154 204.300,216.816 205.400 C 217.478 206.500,218.568 208.570,219.239 210.000 C 219.909 211.430,220.805 213.292,221.229 214.138 C 221.653 214.984,222.000 215.929,222.000 216.238 C 222.000 216.547,222.166 216.800,222.368 216.800 C 222.571 216.800,222.864 217.379,223.019 218.087 C 223.175 218.795,223.437 219.650,223.602 219.987 C 224.518 221.856,225.200 223.712,225.200 224.334 C 225.200 224.722,225.370 225.211,225.577 225.420 C 225.784 225.629,226.136 226.520,226.359 227.400 C 226.582 228.280,227.056 230.080,227.413 231.400 C 228.034 233.695,229.093 238.713,230.020 243.754 C 230.454 246.111,231.118 258.567,230.951 261.200 C 230.902 261.970,230.848 262.834,230.831 263.120 C 230.792 263.777,227.746 265.180,226.333 265.191 C 225.747 265.196,225.207 265.351,225.133 265.536 C 224.879 266.177,213.036 268.769,212.555 268.289 C 212.415 268.148,212.331 265.100,212.369 261.516 C 212.443 254.436,211.216 243.389,209.782 238.242 C 208.945 235.233,206.634 228.000,206.191 227.000 C 205.898 226.340,205.349 225.080,204.970 224.200 C 204.355 222.774,203.262 220.522,200.698 215.400 C 200.257 214.520,199.515 213.264,199.049 212.608 C 198.081 211.250,197.357 210.071,196.954 209.200 C 196.801 208.870,196.084 207.862,195.361 206.960 C 194.637 206.059,193.380 204.449,192.567 203.384 C 190.391 200.533,190.539 200.698,186.000 196.068 C 179.857 189.801,176.711 187.185,170.800 183.427 C 169.150 182.377,167.348 181.203,166.796 180.818 C 165.627 180.003,156.001 175.200,155.536 175.200 C 155.363 175.200,154.272 174.766,153.111 174.235 C 148.084 171.938,133.151 168.400,128.485 168.400 C 126.350 168.400,126.125 165.979,128.021 163.400 C 128.182 163.180,129.346 161.200,130.608 159.000 C 134.817 151.656,136.021 150.256,137.800 150.632 C 138.460 150.771,140.260 151.122,141.800 151.412 M270.552 168.930 C 271.349 170.541,272.000 172.161,272.000 172.530 C 272.000 172.898,272.144 173.200,272.321 173.200 C 272.498 173.200,272.837 174.055,273.075 175.100 C 273.313 176.145,273.888 178.256,274.352 179.791 C 275.468 183.483,275.331 183.772,272.087 184.571 C 268.825 185.375,263.850 187.205,263.666 187.668 C 263.592 187.853,263.350 187.893,263.128 187.755 C 262.906 187.618,262.336 187.684,261.862 187.902 C 257.857 189.742,256.467 190.344,255.622 190.603 C 255.084 190.768,253.804 191.420,252.778 192.052 C 251.751 192.683,250.706 193.200,250.456 193.200 C 250.205 193.200,250.000 193.368,250.000 193.573 C 250.000 193.778,249.651 194.057,249.225 194.192 C 248.493 194.424,241.644 198.898,239.696 200.417 C 236.968 202.543,233.780 205.455,230.133 209.150 C 225.687 213.655,225.390 213.760,224.187 211.250 C 223.754 210.348,223.265 209.607,223.100 209.605 C 222.935 209.602,222.800 209.330,222.800 209.001 C 222.800 208.347,219.725 202.661,217.437 199.084 C 216.647 197.849,216.000 196.679,216.000 196.483 C 216.000 196.117,221.379 190.972,223.615 189.200 C 224.308 188.650,225.264 187.863,225.738 187.452 C 226.212 187.040,227.590 185.973,228.800 185.080 C 230.010 184.187,231.090 183.344,231.200 183.206 C 231.698 182.586,238.968 178.000,239.455 178.000 C 239.755 178.000,240.000 177.851,240.000 177.668 C 240.000 177.110,254.624 170.000,255.772 170.000 C 256.105 170.000,257.395 169.550,258.638 169.000 C 259.882 168.450,261.207 168.000,261.583 168.000 C 261.959 168.000,262.395 167.872,262.551 167.715 C 262.853 167.414,267.346 166.150,268.452 166.056 C 268.888 166.019,269.586 166.974,270.552 168.930 M137.000 173.631 C 143.572 175.066,144.006 175.175,144.779 175.589 C 145.202 175.815,145.973 176.000,146.494 176.000 C 147.014 176.000,147.611 176.150,147.820 176.333 C 148.029 176.515,148.997 176.892,149.971 177.170 C 152.930 178.013,163.405 183.003,164.831 184.249 C 165.179 184.552,165.601 184.800,165.770 184.800 C 166.561 184.800,177.244 192.467,177.533 193.242 C 177.607 193.439,177.822 193.600,178.011 193.600 C 178.346 193.600,185.672 200.827,187.521 202.981 C 190.705 206.691,196.167 214.836,198.129 218.800 C 198.510 219.570,198.982 220.470,199.177 220.800 C 199.554 221.438,201.126 224.876,202.103 227.200 C 203.871 231.405,205.200 235.596,205.200 236.966 C 205.200 237.447,205.371 238.011,205.579 238.220 C 205.964 238.606,206.373 240.519,207.456 247.000 C 208.427 252.806,208.659 267.450,207.796 268.404 C 206.938 269.352,198.402 269.084,190.268 267.854 C 189.071 267.673,188.884 266.896,189.092 262.976 C 189.506 255.176,187.102 241.377,184.217 235.000 C 183.918 234.340,183.348 232.990,182.950 232.000 C 182.552 231.010,181.725 229.370,181.113 228.356 C 180.501 227.341,180.000 226.216,180.000 225.856 C 180.000 225.495,179.859 225.200,179.686 225.200 C 179.514 225.200,179.036 224.615,178.624 223.900 C 174.745 217.163,166.221 208.538,157.676 202.704 C 156.948 202.207,156.138 201.611,155.876 201.379 C 155.614 201.148,153.960 200.258,152.200 199.403 C 148.927 197.811,132.400 182.136,132.400 180.623 C 132.400 180.317,132.263 180.007,132.095 179.933 C 131.351 179.609,126.800 173.658,126.800 173.010 C 126.800 172.109,131.280 172.382,137.000 173.631 M124.466 176.900 C 124.807 177.175,126.305 178.930,127.796 180.800 C 130.518 184.213,131.592 185.378,138.494 192.400 C 142.520 196.495,144.036 197.836,144.486 197.698 C 144.643 197.649,144.679 197.850,144.567 198.143 C 144.454 198.437,144.953 199.137,145.681 199.706 C 146.406 200.272,148.224 201.920,149.721 203.368 C 151.217 204.816,152.521 206.000,152.618 206.000 C 152.837 206.000,158.944 211.770,162.143 215.000 C 169.155 222.078,172.110 233.867,169.813 245.600 C 167.208 258.904,167.318 258.829,159.136 252.907 C 158.457 252.415,157.716 252.128,157.489 252.269 C 157.242 252.421,157.198 252.326,157.380 252.033 C 157.573 251.720,156.611 250.429,154.727 248.471 C 153.101 246.782,151.152 244.590,150.396 243.600 C 149.639 242.610,148.913 241.710,148.782 241.600 C 148.315 241.209,142.577 232.575,141.804 231.100 C 141.372 230.275,140.899 229.600,140.752 229.600 C 140.606 229.600,140.375 229.155,140.238 228.610 C 140.102 228.066,139.542 226.961,138.995 226.155 C 138.448 225.348,138.000 224.443,138.000 224.144 C 138.000 223.845,137.852 223.600,137.671 223.600 C 137.301 223.600,135.955 220.971,135.163 218.700 C 134.875 217.875,134.509 217.200,134.351 217.200 C 134.192 217.200,133.850 216.558,133.591 215.773 C 133.332 214.988,133.046 214.421,132.955 214.512 C 132.708 214.758,133.963 218.700,135.070 221.155 C 135.605 222.341,136.145 223.826,136.271 224.455 C 136.397 225.085,136.657 225.600,136.850 225.600 C 137.042 225.600,137.200 225.870,137.200 226.200 C 137.200 226.530,137.373 226.800,137.585 226.800 C 137.796 226.800,138.157 227.498,138.387 228.352 C 138.842 230.042,140.396 233.170,143.321 238.286 C 144.354 240.093,145.200 241.758,145.200 241.986 C 145.200 242.214,145.335 242.402,145.500 242.403 C 145.665 242.405,146.515 243.530,147.389 244.903 C 148.263 246.277,149.081 247.490,149.208 247.600 C 149.335 247.710,149.847 248.385,150.347 249.100 C 150.846 249.815,151.512 250.400,151.827 250.400 C 152.142 250.400,152.400 250.759,152.400 251.198 C 152.400 252.439,158.106 258.088,159.009 257.741 C 159.483 257.559,159.638 257.615,159.461 257.901 C 158.990 258.663,163.798 262.104,168.200 264.156 C 178.104 268.775,181.406 269.855,191.400 271.749 C 202.673 273.886,221.836 272.076,229.254 268.175 C 230.274 267.639,231.579 267.200,232.154 267.200 C 232.729 267.200,233.200 267.020,233.200 266.800 C 233.200 266.580,233.515 266.394,233.900 266.388 C 234.285 266.381,235.320 265.932,236.200 265.390 C 237.080 264.848,238.017 264.403,238.282 264.402 C 238.547 264.401,239.428 263.950,240.238 263.400 C 241.049 262.850,242.027 262.400,242.413 262.400 C 242.799 262.400,243.211 262.149,243.329 261.842 C 243.447 261.534,244.276 260.960,245.172 260.565 C 246.067 260.169,246.800 259.701,246.800 259.523 C 246.800 259.345,246.988 259.200,247.217 259.200 C 248.441 259.200,256.112 252.785,260.698 247.928 C 260.972 247.637,261.540 247.040,261.959 246.600 C 267.268 241.030,272.719 232.645,276.133 224.800 C 276.468 224.030,277.115 222.555,277.571 221.522 C 278.027 220.489,278.401 219.499,278.403 219.322 C 278.404 219.145,278.781 218.460,279.240 217.800 L 280.074 216.600 279.837 218.555 C 279.606 220.461,277.536 228.202,276.831 229.800 C 276.636 230.240,275.560 232.549,274.439 234.930 C 273.317 237.312,272.400 239.354,272.400 239.469 C 272.400 239.583,271.995 240.241,271.500 240.930 C 270.289 242.616,269.663 243.660,269.360 244.500 C 269.221 244.885,268.948 245.200,268.753 245.200 C 268.559 245.200,268.400 245.455,268.400 245.767 C 268.400 246.078,268.253 246.393,268.073 246.467 C 267.893 246.540,266.591 248.130,265.180 250.000 C 263.769 251.870,261.981 254.081,261.207 254.914 C 258.073 258.287,253.707 262.407,252.200 263.413 C 251.320 264.001,250.150 264.883,249.600 265.375 C 248.470 266.384,243.644 269.599,243.254 269.602 C 242.602 269.606,239.631 271.901,239.898 272.195 C 240.064 272.378,239.869 272.408,239.464 272.262 C 239.019 272.102,238.305 272.295,237.664 272.748 C 236.308 273.705,230.619 276.231,226.800 277.572 C 212.019 282.762,184.824 282.458,173.839 276.979 C 173.200 276.661,172.480 276.399,172.239 276.398 C 171.997 276.396,171.350 276.164,170.800 275.882 C 170.250 275.600,168.900 275.030,167.800 274.616 C 166.700 274.202,164.970 273.354,163.956 272.731 C 162.941 272.109,161.993 271.600,161.847 271.600 C 161.702 271.600,160.822 271.122,159.891 270.538 C 157.348 268.941,152.627 265.828,152.400 265.598 C 152.290 265.487,150.850 264.378,149.200 263.135 C 128.153 247.271,115.936 215.793,120.183 188.365 C 121.508 179.808,122.473 176.400,123.573 176.400 C 123.724 176.400,124.126 176.625,124.466 176.900 M276.793 192.938 C 277.061 195.423,277.216 199.603,277.138 202.228 L 276.996 207.000 275.598 207.673 C 274.829 208.043,272.580 208.938,270.600 209.662 C 268.620 210.386,265.560 211.778,263.800 212.754 C 262.040 213.730,260.240 214.728,259.800 214.972 C 252.150 219.219,244.168 227.105,237.537 236.968 C 233.651 242.747,234.075 243.058,231.591 232.600 C 231.120 230.620,230.564 228.280,230.354 227.400 C 229.927 225.614,228.155 220.578,227.575 219.505 C 226.811 218.091,226.686 218.290,231.802 212.739 C 233.909 210.453,236.226 208.319,239.774 205.400 C 240.843 204.520,241.936 203.588,242.203 203.328 C 243.693 201.875,250.619 197.527,255.200 195.169 C 262.759 191.277,274.663 187.192,275.853 188.082 C 276.103 188.268,276.526 190.454,276.793 192.938 M276.000 213.429 C 276.000 213.969,275.837 214.723,275.637 215.105 C 275.438 215.487,275.061 216.610,274.800 217.600 C 274.202 219.862,273.507 221.535,270.809 227.200 C 267.295 234.579,262.504 241.085,255.408 248.115 C 249.061 254.402,236.593 262.407,235.614 260.823 C 234.887 259.647,234.721 251.070,235.392 249.400 C 237.092 245.175,237.628 244.062,239.096 241.719 C 239.813 240.575,240.400 239.538,240.400 239.415 C 240.400 237.747,250.648 226.246,255.408 222.571 C 259.738 219.229,269.641 213.600,271.192 213.600 C 271.416 213.600,271.600 213.439,271.600 213.243 C 271.600 212.866,275.189 212.036,275.700 212.295 C 275.865 212.379,276.000 212.889,276.000 213.429 M175.048 225.508 C 175.792 226.667,176.400 227.719,176.400 227.846 C 176.400 227.973,176.798 228.636,177.286 229.320 C 178.253 230.679,182.000 239.656,182.000 240.616 C 182.000 240.943,182.168 241.523,182.373 241.905 C 184.308 245.503,186.024 262.554,184.736 265.381 C 184.167 266.629,184.304 266.629,180.508 265.364 C 174.429 263.336,170.253 261.287,170.058 260.234 C 169.907 259.421,170.777 256.161,171.987 253.000 C 174.716 245.875,175.014 236.168,172.816 226.039 C 172.367 223.971,172.000 222.188,172.000 222.077 C 172.000 221.553,173.838 223.621,175.048 225.508 " stroke="none" fill="#fbfbfb" fill-rule="evenodd"></path><path id="path2" d="M193.600 120.001 C 187.486 120.709,176.972 124.646,171.643 128.221 C 170.676 128.869,169.584 129.580,169.216 129.801 C 164.362 132.702,154.281 143.954,153.049 147.844 C 152.673 149.031,153.176 149.330,158.400 151.017 C 162.839 152.450,165.298 153.496,173.000 157.227 C 176.343 158.846,178.715 160.214,179.883 161.194 C 180.149 161.417,180.468 161.600,180.592 161.600 C 181.330 161.600,190.835 168.370,194.800 171.720 C 199.464 175.660,209.976 186.277,210.015 187.086 C 210.024 187.259,210.814 188.289,211.771 189.375 L 213.511 191.350 214.656 190.629 C 215.285 190.232,216.362 189.343,217.049 188.653 C 217.736 187.964,218.738 187.040,219.276 186.600 C 219.815 186.160,220.885 185.260,221.655 184.600 C 225.007 181.725,226.819 180.346,230.200 178.095 C 234.680 175.113,238.651 172.687,240.661 171.704 C 241.507 171.290,242.560 170.743,243.000 170.489 C 244.635 169.543,251.455 166.480,253.000 165.996 C 255.169 165.318,255.600 164.906,255.600 163.509 C 255.600 162.155,254.491 157.606,254.013 157.000 C 253.840 156.780,253.562 156.150,253.397 155.600 C 252.185 151.574,246.467 142.079,243.192 138.655 C 242.321 137.745,241.607 136.877,241.604 136.727 C 241.598 136.302,234.872 130.714,232.200 128.913 C 228.454 126.389,223.155 123.816,219.200 122.601 C 217.990 122.229,216.460 121.742,215.800 121.519 C 211.212 119.968,200.320 119.223,193.600 120.001 " stroke="none" fill="#f4ca0e" fill-rule="evenodd"></path><path id="path3" d="M127.417 173.172 C 127.291 173.377,127.398 173.675,127.655 173.834 C 127.937 174.008,128.017 173.951,127.855 173.689 C 127.693 173.427,128.026 173.188,128.693 173.087 L 129.800 172.920 128.724 172.860 C 128.132 172.827,127.544 172.968,127.417 173.172 M122.649 178.215 C 122.512 178.573,122.415 179.166,122.434 179.533 C 122.453 179.900,122.627 179.669,122.821 179.020 C 123.198 177.758,123.065 177.133,122.649 178.215 M195.600 179.800 C 196.795 181.010,197.863 182.000,197.973 182.000 C 198.083 182.000,197.195 181.010,196.000 179.800 C 194.805 178.590,193.737 177.600,193.627 177.600 C 193.517 177.600,194.405 178.590,195.600 179.800 M126.800 180.800 C 127.497 181.680,128.157 182.400,128.267 182.400 C 128.377 182.400,127.897 181.680,127.200 180.800 C 126.503 179.920,125.843 179.200,125.733 179.200 C 125.623 179.200,126.103 179.920,126.800 180.800 M132.800 180.258 C 132.800 180.474,133.385 181.179,134.100 181.825 L 135.400 183.000 134.200 181.602 C 133.540 180.833,132.955 180.128,132.900 180.035 C 132.845 179.943,132.800 180.043,132.800 180.258 M168.800 181.324 C 168.800 181.417,169.565 181.998,170.500 182.615 C 171.435 183.232,171.989 183.480,171.731 183.168 C 171.234 182.567,168.800 181.036,168.800 181.324 M136.800 185.000 C 137.546 185.770,138.247 186.400,138.357 186.400 C 138.467 186.400,137.946 185.770,137.200 185.000 C 136.454 184.230,135.753 183.600,135.643 183.600 C 135.533 183.600,136.054 184.230,136.800 185.000 M201.400 185.600 C 202.259 186.480,203.052 187.200,203.162 187.200 C 203.272 187.200,202.659 186.480,201.800 185.600 C 200.941 184.720,200.148 184.000,200.038 184.000 C 199.928 184.000,200.541 184.720,201.400 185.600 M132.200 187.200 C 133.059 188.080,133.852 188.800,133.962 188.800 C 134.072 188.800,133.459 188.080,132.600 187.200 C 131.741 186.320,130.948 185.600,130.838 185.600 C 130.728 185.600,131.341 186.320,132.200 187.200 M274.675 188.686 C 275.157 188.775,275.633 189.111,275.735 189.432 C 275.851 189.802,275.896 189.757,275.856 189.308 C 275.815 188.849,275.443 188.586,274.797 188.561 C 273.976 188.530,273.954 188.551,274.675 188.686 M182.200 191.600 C 183.059 192.480,183.852 193.200,183.962 193.200 C 184.072 193.200,183.459 192.480,182.600 191.600 C 181.741 190.720,180.948 190.000,180.838 190.000 C 180.728 190.000,181.341 190.720,182.200 191.600 M276.101 191.800 C 276.105 192.680,276.187 192.993,276.283 192.495 C 276.379 191.998,276.375 191.278,276.275 190.895 C 276.175 190.513,276.096 190.920,276.101 191.800 M219.986 193.100 L 217.800 195.400 220.100 193.214 C 221.365 192.011,222.400 190.976,222.400 190.914 C 222.400 190.617,222.018 190.963,219.986 193.100 M120.101 193.000 C 120.105 193.880,120.187 194.193,120.283 193.695 C 120.379 193.198,120.375 192.478,120.275 192.095 C 120.175 191.713,120.096 192.120,120.101 193.000 M146.200 194.400 C 147.728 195.940,149.069 197.200,149.179 197.200 C 149.289 197.200,148.128 195.940,146.600 194.400 C 145.072 192.860,143.731 191.600,143.621 191.600 C 143.511 191.600,144.672 192.860,146.200 194.400 M176.400 192.925 C 176.400 192.994,176.985 193.579,177.700 194.225 L 179.000 195.400 177.825 194.100 C 176.730 192.888,176.400 192.616,176.400 192.925 M182.600 198.800 C 183.906 200.120,185.065 201.200,185.175 201.200 C 185.285 201.200,184.306 200.120,183.000 198.800 C 181.694 197.480,180.535 196.400,180.425 196.400 C 180.315 196.400,181.294 197.480,182.600 198.800 M145.485 200.392 C 147.511 202.467,149.223 204.082,149.288 203.982 C 149.353 203.882,147.695 202.185,145.603 200.210 L 141.800 196.621 145.485 200.392 M149.600 197.379 C 149.600 197.489,150.140 197.859,150.800 198.200 C 151.460 198.541,152.000 198.731,152.000 198.621 C 152.000 198.511,151.460 198.141,150.800 197.800 C 150.140 197.459,149.600 197.269,149.600 197.379 M217.949 199.000 C 218.165 199.440,218.634 200.160,218.993 200.600 L 219.644 201.400 219.251 200.600 C 219.035 200.160,218.566 199.440,218.207 199.000 L 217.556 198.200 217.949 199.000 M126.800 200.553 C 126.800 200.883,126.980 201.264,127.200 201.400 C 127.420 201.536,127.600 201.377,127.600 201.047 C 127.600 200.717,127.420 200.336,127.200 200.200 C 126.980 200.064,126.800 200.223,126.800 200.553 M186.400 203.000 C 187.146 203.770,187.847 204.400,187.957 204.400 C 188.067 204.400,187.546 203.770,186.800 203.000 C 186.054 202.230,185.353 201.600,185.243 201.600 C 185.133 201.600,185.654 202.230,186.400 203.000 M193.600 204.000 C 194.297 204.880,194.957 205.600,195.067 205.600 C 195.177 205.600,194.697 204.880,194.000 204.000 C 193.303 203.120,192.643 202.400,192.533 202.400 C 192.423 202.400,192.903 203.120,193.600 204.000 M128.162 203.262 C 127.985 203.548,128.052 203.615,128.338 203.438 C 128.592 203.281,128.800 203.309,128.800 203.500 C 128.800 203.691,129.079 204.196,129.419 204.624 C 129.966 205.309,129.965 205.248,129.409 204.100 C 128.717 202.671,128.583 202.581,128.162 203.262 M232.786 205.500 L 230.600 207.800 232.900 205.614 C 234.165 204.411,235.200 203.376,235.200 203.314 C 235.200 203.017,234.818 203.363,232.786 205.500 M150.044 204.900 C 150.141 204.955,151.476 206.170,153.010 207.600 L 155.800 210.200 153.212 207.500 C 151.788 206.015,150.453 204.800,150.245 204.800 C 150.037 204.800,149.946 204.845,150.044 204.900 M168.600 210.800 C 170.350 212.560,171.871 214.000,171.981 214.000 C 172.091 214.000,170.750 212.560,169.000 210.800 C 167.250 209.040,165.729 207.600,165.619 207.600 C 165.509 207.600,166.850 209.040,168.600 210.800 M191.600 209.600 C 192.070 210.260,192.544 210.800,192.654 210.800 C 192.764 210.800,192.470 210.260,192.000 209.600 C 191.530 208.940,191.056 208.400,190.946 208.400 C 190.836 208.400,191.130 208.940,191.600 209.600 M227.785 210.500 L 225.800 212.600 227.900 210.615 C 229.851 208.771,230.183 208.400,229.885 208.400 C 229.822 208.400,228.877 209.345,227.785 210.500 M120.501 210.600 C 120.505 211.480,120.587 211.793,120.683 211.295 C 120.779 210.798,120.775 210.078,120.675 209.695 C 120.575 209.313,120.496 209.720,120.501 210.600 M156.000 210.079 C 156.000 210.167,157.755 211.840,159.900 213.796 C 162.045 215.752,163.260 216.761,162.600 216.038 C 161.272 214.584,156.000 209.824,156.000 210.079 M278.095 221.466 C 277.892 221.870,277.845 222.650,277.990 223.200 C 278.233 224.116,278.280 224.071,278.553 222.659 C 278.886 220.939,278.659 220.346,278.095 221.466 M246.191 224.900 L 243.000 228.200 246.300 225.009 C 249.365 222.046,249.782 221.600,249.491 221.600 C 249.430 221.600,247.945 223.085,246.191 224.900 M252.778 225.500 L 251.400 227.000 252.900 225.622 C 254.296 224.338,254.584 224.000,254.278 224.000 C 254.212 224.000,253.537 224.675,252.778 225.500 M269.000 229.200 C 268.659 229.860,268.469 230.400,268.579 230.400 C 268.689 230.400,269.059 229.860,269.400 229.200 C 269.741 228.540,269.931 228.000,269.821 228.000 C 269.711 228.000,269.341 228.540,269.000 229.200 M138.400 230.553 C 138.400 230.982,139.590 233.200,139.821 233.200 C 139.931 233.200,139.723 232.615,139.359 231.900 C 138.617 230.440,138.400 230.136,138.400 230.553 M169.693 233.200 C 169.693 233.970,169.775 234.285,169.876 233.900 C 169.976 233.515,169.976 232.885,169.876 232.500 C 169.775 232.115,169.693 232.430,169.693 233.200 M140.600 235.200 C 140.941 235.860,141.311 236.400,141.421 236.400 C 141.531 236.400,141.341 235.860,141.000 235.200 C 140.659 234.540,140.289 234.000,140.179 234.000 C 140.069 234.000,140.259 234.540,140.600 235.200 M174.940 237.600 C 174.940 239.470,175.009 240.235,175.093 239.300 C 175.177 238.365,175.177 236.835,175.093 235.900 C 175.009 234.965,174.940 235.730,174.940 237.600 M233.654 239.076 C 233.588 240.141,234.297 240.664,234.935 240.021 C 235.289 239.664,235.241 239.613,234.732 239.807 C 234.248 239.991,234.015 239.805,233.886 239.131 C 233.715 238.234,233.707 238.232,233.654 239.076 M131.549 242.200 C 131.765 242.640,132.234 243.360,132.593 243.800 L 133.244 244.600 132.851 243.800 C 132.635 243.360,132.166 242.640,131.807 242.200 L 131.156 241.400 131.549 242.200 M269.053 243.300 L 268.333 244.600 269.158 243.600 C 269.889 242.713,270.214 242.000,269.886 242.000 C 269.824 242.000,269.449 242.585,269.053 243.300 M146.185 244.700 C 146.802 245.635,147.383 246.400,147.476 246.400 C 147.764 246.400,146.233 243.966,145.632 243.469 C 145.320 243.211,145.568 243.765,146.185 244.700 M264.175 244.900 L 263.000 246.200 264.300 245.025 C 265.512 243.930,265.784 243.600,265.475 243.600 C 265.406 243.600,264.821 244.185,264.175 244.900 M134.000 246.000 C 134.470 246.660,134.944 247.200,135.054 247.200 C 135.164 247.200,134.870 246.660,134.400 246.000 C 133.930 245.340,133.456 244.800,133.346 244.800 C 133.236 244.800,133.530 245.340,134.000 246.000 M267.200 246.000 C 266.730 246.660,266.436 247.200,266.546 247.200 C 266.656 247.200,267.130 246.660,267.600 246.000 C 268.070 245.340,268.364 244.800,268.254 244.800 C 268.144 244.800,267.670 245.340,267.200 246.000 M255.200 247.400 C 254.228 248.390,253.523 249.200,253.633 249.200 C 253.743 249.200,254.628 248.390,255.600 247.400 C 256.572 246.410,257.277 245.600,257.167 245.600 C 257.057 245.600,256.172 246.410,255.200 247.400 M261.381 248.100 L 259.800 249.800 261.500 248.219 C 263.081 246.748,263.384 246.400,263.081 246.400 C 263.016 246.400,262.251 247.165,261.381 248.100 M156.413 249.639 C 159.024 252.175,160.400 253.373,160.400 253.111 C 160.400 252.985,159.095 251.757,157.500 250.381 C 155.905 249.005,155.416 248.671,156.413 249.639 M207.293 250.800 C 207.293 251.570,207.375 251.885,207.476 251.500 C 207.576 251.115,207.576 250.485,207.476 250.100 C 207.375 249.715,207.293 250.030,207.293 250.800 M257.600 251.800 C 256.628 252.790,255.923 253.600,256.033 253.600 C 256.143 253.600,257.028 252.790,258.000 251.800 C 258.972 250.810,259.677 250.000,259.567 250.000 C 259.457 250.000,258.572 250.810,257.600 251.800 M138.434 251.847 C 138.965 252.533,139.480 253.023,139.579 252.935 C 139.677 252.847,139.243 252.286,138.613 251.688 L 137.469 250.600 138.434 251.847 M212.514 253.000 C 212.517 254.100,212.595 254.503,212.687 253.895 C 212.779 253.286,212.777 252.386,212.682 251.895 C 212.587 251.403,212.511 251.900,212.514 253.000 M189.320 255.200 C 189.320 256.410,189.395 256.905,189.487 256.300 C 189.578 255.695,189.578 254.705,189.487 254.100 C 189.395 253.495,189.320 253.990,189.320 255.200 M230.554 258.000 C 230.554 260.750,230.618 261.875,230.696 260.500 C 230.774 259.125,230.774 256.875,230.696 255.500 C 230.618 254.125,230.554 255.250,230.554 258.000 M141.200 255.000 C 141.946 255.770,142.647 256.400,142.757 256.400 C 142.867 256.400,142.346 255.770,141.600 255.000 C 140.854 254.230,140.153 253.600,140.043 253.600 C 139.933 253.600,140.454 254.230,141.200 255.000 M256.400 258.510 C 253.650 261.192,252.300 262.637,253.400 261.722 C 255.415 260.047,261.945 253.585,261.591 253.618 C 261.486 253.627,259.150 255.829,256.400 258.510 M207.701 256.200 C 207.705 257.080,207.787 257.393,207.883 256.895 C 207.979 256.398,207.975 255.678,207.875 255.295 C 207.775 254.913,207.696 255.320,207.701 256.200 M166.400 255.580 C 166.400 255.910,166.048 256.026,165.412 255.904 C 164.869 255.801,164.519 255.870,164.636 256.058 C 164.935 256.542,166.301 256.483,166.616 255.973 C 166.761 255.739,166.772 255.439,166.640 255.307 C 166.508 255.175,166.400 255.298,166.400 255.580 M212.953 260.200 C 212.953 262.840,213.018 263.868,213.097 262.484 C 213.175 261.101,213.174 258.941,213.095 257.684 C 213.016 256.428,212.952 257.560,212.953 260.200 M146.306 259.900 C 147.931 261.495,149.451 262.800,149.684 262.800 C 149.917 262.800,149.589 262.411,148.954 261.936 C 148.319 261.460,146.799 260.155,145.576 259.036 C 144.352 257.916,144.681 258.305,146.306 259.900 M157.687 258.205 C 158.504 259.060,159.238 259.679,159.317 259.580 C 159.397 259.481,158.728 258.781,157.831 258.025 L 156.200 256.650 157.687 258.205 M249.800 258.250 C 249.081 258.862,248.934 259.105,249.433 258.857 C 250.166 258.493,251.541 257.176,251.149 257.214 C 251.067 257.222,250.460 257.688,249.800 258.250 M184.524 260.600 C 184.526 261.920,184.601 262.412,184.690 261.693 C 184.779 260.974,184.777 259.894,184.686 259.293 C 184.595 258.692,184.522 259.280,184.524 260.600 M163.000 262.188 C 163.660 262.729,164.370 263.178,164.578 263.186 C 164.785 263.194,164.345 262.750,163.600 262.200 C 161.857 260.914,161.435 260.905,163.000 262.188 M189.246 264.876 C 189.221 265.908,189.342 266.841,189.516 266.948 C 189.690 267.056,189.770 266.482,189.693 265.672 C 189.459 263.198,189.295 262.907,189.246 264.876 M237.200 265.600 C 236.430 266.022,235.980 266.366,236.200 266.366 C 236.420 266.366,237.230 266.022,238.000 265.600 C 238.770 265.178,239.220 264.834,239.000 264.834 C 238.780 264.834,237.970 265.178,237.200 265.600 M247.800 265.835 L 246.600 266.866 247.900 266.006 C 248.615 265.533,249.200 265.068,249.200 264.973 C 249.200 264.673,249.031 264.778,247.800 265.835 M197.100 268.282 C 197.595 268.378,198.405 268.378,198.900 268.282 C 199.395 268.187,198.990 268.109,198.000 268.109 C 197.010 268.109,196.605 268.187,197.100 268.282 M239.400 271.010 C 238.520 271.552,237.959 271.997,238.153 271.998 C 238.563 272.000,241.200 270.416,241.200 270.167 C 241.200 269.913,241.121 269.951,239.400 271.010 M222.600 270.800 C 222.096 271.017,222.022 271.144,222.400 271.144 C 222.730 271.144,223.360 270.989,223.800 270.800 C 224.304 270.583,224.378 270.456,224.000 270.456 C 223.670 270.456,223.040 270.611,222.600 270.800 M195.505 273.083 C 196.002 273.179,196.722 273.175,197.105 273.075 C 197.487 272.975,197.080 272.896,196.200 272.901 C 195.320 272.905,195.007 272.987,195.505 273.083 M210.500 273.076 C 210.885 273.176,211.515 273.176,211.900 273.076 C 212.285 272.975,211.970 272.893,211.200 272.893 C 210.430 272.893,210.115 272.975,210.500 273.076 M201.900 273.493 C 202.835 273.577,204.365 273.577,205.300 273.493 C 206.235 273.409,205.470 273.340,203.600 273.340 C 201.730 273.340,200.965 273.409,201.900 273.493 M191.905 280.683 C 192.402 280.779,193.122 280.775,193.505 280.675 C 193.887 280.575,193.480 280.496,192.600 280.501 C 191.720 280.505,191.407 280.587,191.905 280.683 M207.905 280.683 C 208.402 280.779,209.122 280.775,209.505 280.675 C 209.887 280.575,209.480 280.496,208.600 280.501 C 207.720 280.505,207.407 280.587,207.905 280.683 M199.900 281.082 C 200.395 281.178,201.205 281.178,201.700 281.082 C 202.195 280.987,201.790 280.909,200.800 280.909 C 199.810 280.909,199.405 280.987,199.900 281.082 " stroke="none" fill="#a2c7a0" fill-rule="evenodd"></path><path id="path4" d="M192.200 119.381 C 178.510 121.804,162.747 130.849,156.961 139.600 C 156.452 140.370,155.310 141.990,154.423 143.200 C 150.421 148.662,150.509 149.363,155.400 151.019 C 159.879 152.536,164.682 154.350,166.000 155.023 C 166.550 155.304,169.250 156.645,172.000 158.002 C 174.750 159.360,177.270 160.702,177.600 160.984 C 177.930 161.266,179.089 161.985,180.176 162.583 C 181.858 163.508,183.830 164.845,190.378 169.504 C 195.043 172.823,209.255 186.926,209.962 188.939 C 210.348 190.038,212.959 192.800,213.611 192.800 C 214.005 192.800,215.118 192.031,216.085 191.091 C 220.637 186.667,228.717 180.000,229.527 180.000 C 229.740 180.000,230.018 179.730,230.145 179.400 C 230.271 179.070,230.576 178.800,230.822 178.800 C 231.068 178.800,232.019 178.285,232.935 177.656 C 236.100 175.482,240.711 172.800,241.284 172.800 C 241.600 172.800,242.745 172.170,243.828 171.400 C 244.911 170.630,246.029 170.000,246.312 170.000 C 246.595 170.000,247.717 169.549,248.805 168.998 C 249.893 168.446,251.798 167.616,253.037 167.152 C 257.760 165.385,257.884 162.567,253.644 153.476 C 252.740 151.538,252.000 149.718,252.000 149.432 C 252.000 149.146,251.520 148.212,250.934 147.356 C 250.348 146.500,248.953 144.456,247.834 142.813 C 242.089 134.378,229.961 124.843,221.952 122.465 C 221.209 122.244,219.610 121.678,218.400 121.207 C 211.891 118.675,200.626 117.889,192.200 119.381 M212.200 120.539 C 213.520 120.855,215.140 121.296,215.800 121.519 C 216.460 121.742,217.990 122.229,219.200 122.601 C 223.155 123.816,228.454 126.389,232.200 128.913 C 234.872 130.714,241.598 136.302,241.604 136.727 C 241.607 136.877,242.321 137.745,243.192 138.655 C 246.467 142.079,252.185 151.574,253.397 155.600 C 253.562 156.150,253.840 156.780,254.013 157.000 C 254.491 157.606,255.600 162.155,255.600 163.509 C 255.600 164.906,255.169 165.318,253.000 165.996 C 251.455 166.480,244.635 169.543,243.000 170.489 C 242.560 170.743,241.507 171.290,240.661 171.704 C 238.651 172.687,234.680 175.113,230.200 178.095 C 226.819 180.346,225.007 181.725,221.655 184.600 C 220.885 185.260,219.815 186.160,219.276 186.600 C 218.738 187.040,217.736 187.964,217.049 188.653 C 216.362 189.343,215.285 190.232,214.656 190.629 L 213.511 191.350 211.771 189.375 C 210.814 188.289,210.024 187.259,210.015 187.086 C 209.976 186.277,199.464 175.660,194.800 171.720 C 190.835 168.370,181.330 161.600,180.592 161.600 C 180.468 161.600,180.149 161.417,179.883 161.194 C 178.715 160.214,176.343 158.846,173.000 157.227 C 165.298 153.496,162.839 152.450,158.400 151.017 C 153.176 149.330,152.673 149.031,153.049 147.844 C 154.281 143.954,164.362 132.702,169.216 129.801 C 169.584 129.580,170.676 128.869,171.643 128.221 C 182.200 121.137,200.341 117.702,212.200 120.539 " stroke="none" fill="#dde3a4" fill-rule="evenodd"></path><path id="path5" d="M133.864 155.104 C 127.223 164.985,126.315 167.998,129.976 168.001 C 130.759 168.002,132.995 168.282,134.945 168.623 C 136.895 168.964,138.569 169.165,138.664 169.069 C 138.918 168.815,137.545 168.535,132.400 167.791 C 129.870 167.426,127.763 167.091,127.718 167.048 C 127.617 166.951,130.130 162.069,131.956 158.816 C 132.701 157.487,133.466 156.400,133.656 156.400 C 133.845 156.400,134.000 156.215,134.000 155.990 C 134.000 154.261,136.990 151.639,138.772 151.804 C 140.277 151.943,140.388 151.913,139.400 151.634 C 136.776 150.892,136.636 150.980,133.864 155.104 M141.600 152.370 C 141.930 152.600,142.749 152.791,143.420 152.794 C 144.091 152.797,144.840 153.000,145.085 153.245 C 145.330 153.490,145.771 153.601,146.065 153.493 C 146.783 153.228,145.106 152.577,142.800 152.226 C 141.498 152.029,141.166 152.068,141.600 152.370 M147.200 153.600 C 147.530 153.813,148.160 153.978,148.600 153.966 L 149.400 153.944 148.600 153.600 C 147.404 153.086,146.405 153.086,147.200 153.600 M149.600 154.158 C 149.600 154.274,150.365 154.567,151.300 154.810 C 153.182 155.297,161.054 158.157,163.114 159.102 C 163.837 159.433,164.525 159.609,164.642 159.491 C 164.895 159.238,155.392 155.488,152.800 154.818 C 151.810 154.562,150.685 154.261,150.300 154.149 C 149.915 154.038,149.600 154.041,149.600 154.158 M165.235 159.768 C 165.327 159.861,167.292 160.912,169.602 162.104 C 175.202 164.996,177.656 166.378,178.502 167.116 C 178.889 167.453,179.311 167.623,179.440 167.493 C 179.775 167.158,177.009 165.473,170.960 162.326 C 166.391 159.950,164.629 159.162,165.235 159.768 M266.200 167.199 C 265.760 167.388,264.884 167.655,264.253 167.791 C 263.622 167.927,263.203 168.137,263.323 168.256 C 263.443 168.376,264.577 168.173,265.844 167.804 L 268.147 167.135 268.865 168.067 C 269.259 168.580,269.586 169.165,269.591 169.367 C 269.596 169.568,269.703 169.630,269.829 169.504 C 271.027 168.306,268.038 166.407,266.200 167.199 M180.000 167.934 C 180.000 168.143,180.267 168.417,180.594 168.542 C 181.239 168.790,188.256 173.849,189.148 174.710 C 189.449 175.000,189.794 175.140,189.914 175.019 C 190.035 174.899,190.058 174.749,189.967 174.686 C 189.875 174.623,188.990 173.940,188.000 173.168 C 186.240 171.796,181.494 168.427,180.500 167.845 C 180.225 167.684,180.000 167.724,180.000 167.934 M258.800 169.568 C 254.001 171.353,250.353 172.887,250.516 173.050 C 250.644 173.177,253.777 172.028,261.600 168.986 C 262.370 168.686,262.730 168.444,262.400 168.447 C 262.070 168.449,260.450 168.954,258.800 169.568 M139.800 169.600 C 140.240 169.789,140.960 169.944,141.400 169.944 L 142.200 169.944 141.400 169.600 C 140.960 169.411,140.240 169.256,139.800 169.256 L 139.000 169.256 139.800 169.600 M270.033 170.052 C 270.015 170.191,270.468 171.541,271.039 173.052 C 272.232 176.206,273.435 180.108,273.699 181.676 C 273.897 182.855,273.452 183.140,270.060 184.008 C 269.102 184.252,268.407 184.540,268.514 184.648 C 268.862 184.995,274.094 183.422,274.290 182.910 C 274.539 182.261,272.301 174.697,271.046 171.948 C 270.507 170.767,270.051 169.914,270.033 170.052 M147.187 171.413 C 148.829 171.934,150.250 172.283,150.344 172.189 C 150.438 172.096,150.264 171.944,149.957 171.854 C 149.651 171.763,148.584 171.398,147.587 171.044 C 146.589 170.690,145.419 170.415,144.987 170.433 C 144.554 170.450,145.544 170.891,147.187 171.413 M150.800 172.503 C 150.910 172.611,152.710 173.376,154.800 174.203 C 160.750 176.557,168.380 180.600,172.379 183.516 C 173.161 184.086,174.790 185.275,176.000 186.159 C 181.115 189.893,186.426 194.974,191.304 200.800 C 194.866 205.054,195.537 205.739,194.559 204.122 C 192.265 200.327,182.619 190.578,177.170 186.545 C 168.760 180.323,165.341 178.308,156.400 174.310 C 155.410 173.867,154.324 173.369,153.987 173.203 C 153.223 172.828,150.527 172.235,150.800 172.503 M127.600 173.384 C 127.600 173.484,128.678 174.879,129.995 176.484 C 131.312 178.088,132.977 180.119,133.695 180.997 C 139.410 187.989,148.547 196.607,152.522 198.754 C 165.801 205.924,175.872 216.284,182.496 229.586 C 183.979 232.564,185.194 234.696,185.196 234.324 C 185.198 233.952,185.047 233.552,184.859 233.437 C 184.672 233.321,184.196 232.365,183.802 231.313 C 182.758 228.526,176.793 218.483,175.657 217.600 C 175.516 217.490,174.500 216.320,173.400 215.000 C 167.848 208.338,160.171 202.248,151.691 197.778 C 147.433 195.534,135.394 183.207,129.600 175.157 C 128.382 173.464,127.600 172.771,127.600 173.384 M131.200 173.635 C 132.410 173.853,134.769 174.318,136.443 174.668 C 138.116 175.018,139.723 175.226,140.014 175.129 C 140.694 174.902,134.527 173.689,131.400 173.434 L 129.000 173.239 131.200 173.635 M244.400 175.924 C 234.370 181.374,227.084 186.553,220.390 192.991 C 216.407 196.822,216.555 196.496,217.904 198.480 C 218.547 199.426,219.932 201.785,220.981 203.722 C 222.030 205.659,222.967 207.166,223.063 207.070 C 223.265 206.868,222.380 205.203,219.409 200.200 L 217.271 196.600 219.158 194.800 C 225.358 188.888,228.313 186.480,234.200 182.541 C 238.853 179.427,243.904 176.471,247.300 174.872 C 249.757 173.715,250.508 173.194,249.700 173.204 C 249.535 173.206,247.150 174.430,244.400 175.924 M142.000 175.773 C 142.770 176.084,143.760 176.341,144.200 176.344 L 145.000 176.349 144.200 176.027 C 143.760 175.849,142.770 175.592,142.000 175.455 L 140.600 175.207 142.000 175.773 M190.445 175.417 C 190.530 175.646,192.400 177.465,194.600 179.458 C 196.800 181.452,199.770 184.397,201.200 186.004 C 202.630 187.610,203.987 189.122,204.215 189.362 C 207.162 192.472,214.364 203.034,216.911 207.982 C 218.411 210.895,219.622 212.718,218.917 211.000 C 215.977 203.845,206.487 190.504,199.179 183.252 C 195.042 179.147,190.226 174.827,190.445 175.417 M145.774 176.757 C 145.924 177.001,146.303 177.200,146.616 177.200 C 147.411 177.200,154.845 180.183,158.162 181.834 C 159.682 182.590,161.013 183.121,161.120 183.013 C 161.405 182.729,154.998 179.766,150.000 177.872 C 146.214 176.437,145.451 176.236,145.774 176.757 M123.233 177.300 C 123.325 177.355,123.940 177.850,124.600 178.400 L 125.800 179.400 124.830 178.300 C 124.297 177.695,123.682 177.200,123.464 177.200 C 123.245 177.200,123.142 177.245,123.233 177.300 M161.743 183.500 C 161.848 183.665,162.624 184.158,163.467 184.596 C 164.310 185.034,165.090 185.495,165.200 185.621 C 165.310 185.746,166.480 186.517,167.800 187.333 C 169.120 188.149,170.650 189.105,171.200 189.457 C 171.752 189.810,171.583 189.559,170.823 188.896 C 168.696 187.041,161.140 182.551,161.743 183.500 M266.200 185.200 C 265.908 185.673,266.299 185.673,267.400 185.200 C 268.171 184.869,268.169 184.855,267.324 184.828 C 266.842 184.813,266.336 184.980,266.200 185.200 M263.642 186.034 C 263.115 186.245,262.775 186.508,262.886 186.620 C 263.120 186.853,265.200 186.125,265.200 185.810 C 265.200 185.521,264.769 185.583,263.642 186.034 M132.800 188.200 C 133.546 188.970,134.247 189.600,134.357 189.600 C 134.467 189.600,133.946 188.970,133.200 188.200 C 132.454 187.430,131.753 186.800,131.643 186.800 C 131.533 186.800,132.054 187.430,132.800 188.200 M260.800 187.085 C 259.012 187.746,255.145 189.679,255.300 189.833 C 255.399 189.933,256.632 189.497,258.040 188.865 C 259.448 188.233,261.050 187.522,261.600 187.285 C 262.611 186.850,261.910 186.675,260.800 187.085 M273.000 189.003 C 272.780 189.079,271.546 189.436,270.257 189.795 C 268.968 190.154,268.006 190.540,268.119 190.652 C 268.232 190.765,269.106 190.595,270.062 190.274 C 271.018 189.954,272.543 189.569,273.452 189.419 L 275.104 189.146 275.505 191.073 C 275.816 192.572,275.915 192.734,275.947 191.800 C 276.040 189.135,275.122 188.263,273.000 189.003 M173.429 191.064 C 174.105 191.689,175.808 193.190,177.214 194.400 C 183.003 199.382,190.573 208.112,193.428 213.100 C 193.838 213.815,194.324 214.400,194.510 214.400 C 194.935 214.400,194.764 214.109,192.041 210.200 C 187.187 203.232,177.909 193.578,173.130 190.523 C 172.529 190.139,172.634 190.330,173.429 191.064 M252.000 191.277 C 250.790 191.950,249.260 192.801,248.600 193.167 C 243.086 196.225,235.114 202.385,229.856 207.650 C 225.233 212.279,225.638 212.136,224.489 209.544 C 223.988 208.413,223.485 207.582,223.370 207.697 C 223.137 207.929,225.242 212.400,225.585 212.400 C 225.704 212.400,227.602 210.587,229.801 208.370 C 236.137 201.986,242.164 197.346,249.350 193.320 C 251.577 192.072,253.755 190.814,254.189 190.525 C 255.654 189.550,254.216 190.044,252.000 191.277 M266.200 191.085 C 265.760 191.191,265.220 191.460,265.000 191.684 C 264.730 191.958,264.925 191.995,265.600 191.797 C 267.671 191.189,268.155 190.615,266.200 191.085 M258.109 194.580 C 247.487 199.719,241.151 204.299,232.500 213.089 C 227.729 217.936,227.645 218.106,228.800 220.600 C 229.696 222.535,229.850 221.897,228.986 219.829 C 228.242 218.047,228.238 218.054,233.904 212.266 C 241.504 204.503,253.220 196.632,263.000 192.718 C 263.880 192.366,264.330 192.065,264.000 192.049 C 263.670 192.033,261.019 193.172,258.109 194.580 M276.062 199.471 C 275.996 206.343,275.764 207.200,273.966 207.200 C 273.539 207.200,272.877 207.365,272.495 207.567 C 272.113 207.769,270.360 208.530,268.600 209.258 C 266.840 209.987,264.680 210.969,263.800 211.443 C 262.920 211.916,261.570 212.643,260.800 213.059 C 259.066 213.995,253.284 217.886,252.200 218.846 C 251.760 219.235,250.509 220.330,249.421 221.277 C 244.046 225.956,235.600 236.163,235.600 237.980 C 235.600 239.576,234.432 239.001,233.998 237.192 C 233.730 236.072,233.411 235.256,233.291 235.376 C 232.992 235.675,234.052 240.000,234.424 240.000 C 234.587 240.000,235.662 238.515,236.814 236.700 C 245.269 223.379,258.780 212.635,272.870 208.028 C 274.338 207.548,275.709 206.940,275.916 206.677 C 276.480 205.962,276.761 200.255,276.423 196.400 C 276.152 193.318,276.118 193.606,276.062 199.471 M120.093 195.600 C 120.093 196.370,120.175 196.685,120.276 196.300 C 120.376 195.915,120.376 195.285,120.276 194.900 C 120.175 194.515,120.093 194.830,120.093 195.600 M142.400 197.710 C 142.400 197.771,143.795 199.166,145.500 200.810 L 148.600 203.800 145.610 200.700 C 142.833 197.821,142.400 197.417,142.400 197.710 M120.093 204.800 C 120.093 205.570,120.175 205.885,120.276 205.500 C 120.376 205.115,120.376 204.485,120.276 204.100 C 120.175 203.715,120.093 204.030,120.093 204.800 M150.400 205.325 C 150.400 205.394,150.985 205.979,151.700 206.625 L 153.000 207.800 151.825 206.500 C 150.730 205.288,150.400 205.016,150.400 205.325 M197.879 209.500 C 199.295 211.645,201.792 216.096,203.427 219.391 C 205.062 222.686,206.400 225.155,206.400 224.877 C 206.400 223.047,196.603 205.644,195.552 205.608 C 195.416 205.604,196.463 207.355,197.879 209.500 M219.200 212.084 C 219.200 212.290,220.372 215.014,222.037 218.678 C 222.457 219.601,222.800 220.636,222.800 220.978 C 222.800 221.320,222.972 221.600,223.182 221.600 C 223.623 221.600,223.045 219.906,221.101 215.500 C 219.859 212.685,219.200 211.501,219.200 212.084 M272.046 213.842 C 257.573 219.292,244.876 231.142,237.753 245.845 L 235.600 250.289 235.600 255.157 C 235.600 261.013,235.680 261.091,239.491 258.975 C 252.843 251.560,264.739 238.996,270.523 226.200 C 271.698 223.601,270.649 225.123,268.593 229.000 C 266.681 232.606,265.811 234.078,264.928 235.200 C 264.668 235.530,263.498 237.087,262.328 238.661 C 258.748 243.475,254.165 247.983,246.955 253.782 C 243.618 256.465,236.747 260.156,236.325 259.492 C 235.883 258.796,235.923 250.495,236.369 250.219 C 236.572 250.094,236.865 249.408,237.019 248.695 C 237.347 247.180,241.508 239.187,242.379 238.400 C 242.500 238.290,243.227 237.300,243.993 236.200 C 249.629 228.111,258.487 220.682,267.800 216.233 C 273.360 213.577,274.644 213.229,274.924 214.300 C 275.066 214.841,275.118 214.801,275.154 214.124 C 275.223 212.821,274.848 212.787,272.046 213.842 M197.229 219.533 C 198.570 222.246,199.754 224.380,199.859 224.275 C 200.087 224.047,196.341 216.544,195.428 215.400 C 195.077 214.960,195.888 216.820,197.229 219.533 M161.200 215.325 C 161.200 215.394,161.785 215.979,162.500 216.625 L 163.800 217.800 162.625 216.500 C 161.530 215.288,161.200 215.016,161.200 215.325 M273.875 216.878 C 273.536 217.825,272.795 219.844,272.228 221.365 C 270.927 224.850,271.131 225.250,272.503 221.905 C 274.187 217.798,274.928 215.595,274.703 215.369 C 274.586 215.252,274.213 215.931,273.875 216.878 M223.628 222.474 C 223.593 223.322,224.357 225.376,224.613 225.121 C 224.718 225.016,224.545 224.226,224.230 223.365 C 223.914 222.504,223.644 222.103,223.628 222.474 M229.812 223.307 C 230.411 225.691,231.965 230.164,231.982 229.551 C 231.992 229.194,231.538 227.487,230.974 225.758 C 229.947 222.612,229.290 221.226,229.812 223.307 M277.223 224.173 C 276.952 224.498,276.838 224.937,276.968 225.148 C 277.098 225.359,277.030 225.592,276.815 225.666 C 276.583 225.746,276.567 226.028,276.776 226.364 C 277.034 226.779,277.240 226.519,277.553 225.387 C 278.033 223.648,277.940 223.308,277.223 224.173 M173.200 224.920 C 173.200 225.273,173.382 225.976,173.605 226.481 C 173.828 226.987,174.272 229.020,174.593 231.000 L 175.175 234.600 174.979 231.311 C 174.871 229.501,174.686 227.701,174.568 227.311 C 174.450 226.920,174.722 227.263,175.173 228.074 C 176.413 230.304,176.996 230.360,175.867 228.140 C 174.636 225.721,173.200 223.988,173.200 224.920 M200.213 225.400 C 200.356 225.840,200.633 226.560,200.828 227.000 C 201.024 227.440,201.372 228.320,201.603 228.955 C 201.834 229.591,202.109 230.024,202.215 229.918 C 202.435 229.698,200.849 225.606,200.309 225.000 C 200.094 224.759,200.056 224.918,200.213 225.400 M206.583 226.200 C 206.749 226.640,207.156 227.775,207.487 228.722 C 207.819 229.669,208.179 230.355,208.287 230.246 C 208.534 229.999,207.208 226.343,206.675 225.800 C 206.417 225.537,206.386 225.675,206.583 226.200 M224.828 226.276 C 224.813 226.758,224.980 227.264,225.200 227.400 C 225.673 227.692,225.673 227.301,225.200 226.200 C 224.869 225.429,224.855 225.431,224.828 226.276 M225.829 229.600 C 225.973 230.370,226.259 231.270,226.463 231.600 C 226.710 231.999,226.746 231.730,226.571 230.800 C 226.427 230.030,226.141 229.130,225.937 228.800 C 225.690 228.401,225.654 228.670,225.829 229.600 M176.800 230.513 C 176.800 230.575,177.609 232.420,178.598 234.613 C 179.587 236.806,180.397 238.915,180.398 239.300 C 180.399 239.685,180.576 240.000,180.791 240.000 C 181.241 240.000,179.561 235.113,178.144 232.300 C 177.345 230.714,176.800 229.989,176.800 230.513 M202.455 230.800 C 202.453 231.130,202.975 232.930,203.616 234.800 C 204.256 236.670,204.676 237.594,204.548 236.853 C 204.260 235.181,202.461 229.979,202.455 230.800 M232.008 230.620 C 232.012 230.829,232.275 231.900,232.592 233.000 L 233.168 235.000 232.937 233.000 C 232.744 231.323,231.982 229.374,232.008 230.620 M208.446 231.200 C 208.468 232.098,209.534 234.704,209.570 233.946 C 209.586 233.586,209.337 232.686,209.016 231.946 C 208.694 231.206,208.438 230.870,208.446 231.200 M226.817 232.833 C 226.827 233.145,226.988 234.120,227.176 235.000 C 228.175 239.681,228.941 243.762,229.393 246.800 C 229.672 248.675,229.920 249.572,229.947 248.800 C 230.018 246.725,227.552 233.018,227.010 232.476 C 226.894 232.361,226.808 232.522,226.817 232.833 M273.878 233.805 C 273.512 234.572,273.295 235.200,273.396 235.200 C 273.670 235.200,274.884 232.751,274.701 232.568 C 274.614 232.481,274.244 233.038,273.878 233.805 M209.858 236.200 C 209.992 237.080,210.267 238.070,210.469 238.400 C 210.707 238.791,210.741 238.513,210.566 237.600 C 210.153 235.454,209.566 234.293,209.858 236.200 M185.325 235.800 C 186.989 241.486,188.365 245.650,188.380 245.045 C 188.409 243.923,186.020 235.864,185.521 235.400 C 185.221 235.120,185.162 235.241,185.325 235.800 M204.890 239.200 C 204.999 239.750,205.313 241.370,205.586 242.800 C 206.396 247.031,206.514 247.460,206.680 246.768 C 206.846 246.082,205.308 238.761,204.925 238.413 C 204.796 238.296,204.780 238.650,204.890 239.200 M210.817 240.020 C 210.826 240.339,211.090 241.590,211.404 242.800 L 211.973 245.000 211.741 242.600 C 211.540 240.520,210.769 238.367,210.817 240.020 M174.622 243.500 C 174.472 244.985,174.073 247.337,173.735 248.727 C 173.397 250.116,173.211 251.344,173.321 251.455 C 173.628 251.762,174.854 246.127,175.096 243.300 C 175.213 241.925,175.216 240.800,175.101 240.800 C 174.987 240.800,174.771 242.015,174.622 243.500 M181.634 242.600 C 181.622 243.040,181.787 243.670,182.000 244.000 C 182.514 244.795,182.514 243.796,182.000 242.600 L 181.656 241.800 181.634 242.600 M182.650 246.553 C 182.889 248.721,183.560 250.879,183.536 249.400 C 183.529 248.960,183.278 247.700,182.979 246.600 L 182.435 244.600 182.650 246.553 M212.250 247.800 C 212.810 254.131,213.156 255.977,212.950 251.539 C 212.841 249.196,212.583 246.766,212.377 246.139 C 212.110 245.328,212.073 245.806,212.250 247.800 M188.465 246.600 C 188.463 247.040,188.713 248.750,189.020 250.400 L 189.579 253.400 189.385 250.800 C 189.195 248.251,188.473 244.955,188.465 246.600 M155.800 248.800 C 156.659 249.680,157.452 250.400,157.562 250.400 C 157.672 250.400,157.059 249.680,156.200 248.800 C 155.341 247.920,154.548 247.200,154.438 247.200 C 154.328 247.200,154.941 247.920,155.800 248.800 M259.785 250.100 L 257.800 252.200 259.900 250.215 C 261.851 248.371,262.183 248.000,261.885 248.000 C 261.822 248.000,260.877 248.945,259.785 250.100 M207.136 258.072 L 207.306 267.544 205.953 267.774 C 205.209 267.900,203.430 268.061,202.000 268.132 C 200.570 268.203,201.200 268.248,203.400 268.231 L 207.400 268.200 207.710 265.400 C 208.019 262.598,207.772 254.804,207.245 250.753 C 207.091 249.569,207.042 252.862,207.136 258.072 M230.137 254.200 C 230.139 255.960,230.209 256.630,230.293 255.689 C 230.378 254.749,230.377 253.309,230.291 252.489 C 230.205 251.670,230.136 252.440,230.137 254.200 M183.922 257.259 C 184.149 264.415,184.014 265.146,182.506 264.940 C 181.561 264.811,181.516 264.844,182.200 265.166 C 184.370 266.190,184.403 266.102,184.360 259.500 C 184.338 256.145,184.189 252.950,184.028 252.400 C 183.868 251.850,183.820 254.036,183.922 257.259 M171.741 255.919 C 171.064 258.054,170.586 260.003,170.679 260.252 C 170.992 261.086,180.627 265.107,181.123 264.610 C 181.228 264.505,180.974 264.313,180.557 264.184 C 174.178 262.209,170.291 260.107,171.122 259.082 C 171.567 258.535,173.339 252.406,173.117 252.184 C 173.037 252.104,172.418 253.785,171.741 255.919 M260.975 253.700 L 259.800 255.000 261.100 253.825 C 261.815 253.179,262.400 252.594,262.400 252.525 C 262.400 252.216,262.070 252.488,260.975 253.700 M139.600 252.925 C 139.600 252.994,140.185 253.579,140.900 254.225 L 142.200 255.400 141.025 254.100 C 139.930 252.888,139.600 252.616,139.600 252.925 M189.783 261.000 L 189.800 267.000 192.400 267.457 C 193.830 267.708,195.810 267.912,196.800 267.910 C 197.841 267.908,196.792 267.654,194.310 267.308 L 190.021 266.710 189.893 260.855 L 189.766 255.000 189.783 261.000 M229.431 263.008 C 229.007 263.328,228.060 263.703,227.326 263.840 C 226.592 263.978,225.888 264.257,225.762 264.461 C 225.627 264.679,226.000 264.716,226.666 264.551 C 228.552 264.082,230.400 263.213,230.400 262.795 C 230.400 262.295,230.361 262.304,229.431 263.008 M212.847 265.913 C 212.789 267.520,213.366 267.794,215.667 267.251 L 217.400 266.843 215.410 266.921 C 213.499 266.997,213.409 266.952,213.157 265.800 L 212.895 264.600 212.847 265.913 M222.800 265.169 C 222.470 265.358,221.120 265.745,219.800 266.029 C 218.480 266.312,217.738 266.619,218.150 266.711 C 218.806 266.857,221.075 266.307,224.400 265.197 L 225.400 264.863 224.400 264.844 C 223.850 264.833,223.130 264.979,222.800 265.169 M207.505 273.483 C 208.002 273.579,208.722 273.575,209.105 273.475 C 209.487 273.375,209.080 273.296,208.200 273.301 C 207.320 273.305,207.007 273.387,207.505 273.483 M195.511 280.693 C 196.451 280.778,197.891 280.777,198.711 280.691 C 199.530 280.605,198.760 280.536,197.000 280.537 C 195.240 280.539,194.570 280.609,195.511 280.693 M202.900 280.691 C 203.725 280.778,205.075 280.778,205.900 280.691 C 206.725 280.605,206.050 280.534,204.400 280.534 C 202.750 280.534,202.075 280.605,202.900 280.691 " stroke="none" fill="#93a97e" fill-rule="evenodd"></path><path id="path6" d="M137.200 150.800 C 138.568 151.238,139.619 151.238,138.600 150.800 C 138.160 150.611,137.440 150.462,137.000 150.468 C 136.357 150.477,136.396 150.543,137.200 150.800 M133.233 168.947 C 133.325 169.028,134.120 169.204,135.000 169.338 C 136.115 169.507,136.358 169.471,135.800 169.219 C 135.032 168.871,132.890 168.644,133.233 168.947 M270.668 169.906 C 270.794 170.405,271.055 170.910,271.248 171.030 C 271.796 171.368,271.662 170.636,271.020 169.776 C 270.460 169.027,270.448 169.032,270.668 169.906 M254.042 170.434 C 253.515 170.645,253.184 170.917,253.307 171.040 C 253.429 171.162,254.040 170.986,254.665 170.647 C 255.921 169.966,255.539 169.835,254.042 170.434 M192.779 176.578 C 193.307 177.140,193.800 177.600,193.873 177.600 C 194.234 177.600,192.939 175.985,192.418 175.786 C 192.088 175.659,192.251 176.016,192.779 176.578 M122.916 176.900 C 122.311 177.692,121.672 179.646,121.379 181.600 C 120.995 184.160,121.384 183.480,122.180 180.200 C 122.554 178.660,123.151 177.175,123.506 176.900 C 123.862 176.625,123.961 176.400,123.725 176.400 C 123.490 176.400,123.126 176.625,122.916 176.900 M124.400 177.096 C 124.400 177.347,124.568 177.656,124.773 177.783 C 124.977 177.910,126.271 179.495,127.647 181.307 C 131.842 186.827,143.715 198.848,154.209 208.200 C 159.707 213.100,165.200 218.686,165.200 219.378 C 165.200 219.720,165.355 220.000,165.545 220.000 C 165.735 220.000,166.382 221.094,166.982 222.431 C 167.581 223.767,168.159 224.774,168.266 224.668 C 168.537 224.397,166.149 219.671,164.940 218.086 C 163.504 216.203,153.102 206.000,152.618 206.000 C 152.521 206.000,151.217 204.816,149.721 203.368 C 148.224 201.920,146.406 200.272,145.681 199.706 C 144.953 199.137,144.454 198.437,144.567 198.143 C 144.679 197.850,144.643 197.649,144.486 197.698 C 144.036 197.836,142.520 196.495,138.494 192.400 C 131.596 185.382,130.518 184.214,127.793 180.800 C 124.356 176.496,124.400 176.543,124.400 177.096 M132.413 180.633 C 132.430 181.096,133.534 182.362,134.815 183.390 C 135.357 183.824,135.080 183.377,134.200 182.396 C 133.320 181.415,132.555 180.535,132.500 180.439 C 132.445 180.344,132.406 180.432,132.413 180.633 M120.582 185.382 C 120.429 186.402,120.402 187.335,120.522 187.455 C 120.642 187.575,120.865 186.839,121.018 185.818 C 121.171 184.798,121.198 183.865,121.078 183.745 C 120.958 183.625,120.735 184.361,120.582 185.382 M140.793 189.700 C 143.099 192.065,145.034 194.000,145.093 194.000 C 145.382 194.000,144.894 193.487,140.900 189.593 L 136.600 185.400 140.793 189.700 M119.854 190.256 C 119.517 192.716,119.571 208.175,119.923 210.156 C 120.075 211.012,120.200 206.467,120.200 200.056 C 120.200 193.645,120.179 188.400,120.154 188.400 C 120.129 188.400,119.994 189.235,119.854 190.256 M179.600 189.725 C 179.600 189.794,180.185 190.379,180.900 191.025 L 182.200 192.200 181.025 190.900 C 179.930 189.688,179.600 189.416,179.600 189.725 M276.509 192.800 C 276.509 193.790,276.587 194.195,276.682 193.700 C 276.778 193.205,276.778 192.395,276.682 191.900 C 276.587 191.405,276.509 191.810,276.509 192.800 M217.683 194.515 C 216.008 196.222,215.672 196.950,216.363 197.377 C 216.562 197.500,216.640 197.275,216.536 196.876 C 216.408 196.386,216.935 195.609,218.164 194.476 C 219.164 193.554,219.844 192.800,219.674 192.800 C 219.505 192.800,218.609 193.572,217.683 194.515 M185.983 195.800 C 189.500 199.642,189.937 200.059,188.502 198.200 C 187.822 197.320,186.400 195.790,185.343 194.800 C 183.869 193.421,184.018 193.654,185.983 195.800 M178.000 193.725 C 178.000 193.794,178.567 194.379,179.261 195.025 L 180.521 196.200 179.585 194.900 C 178.805 193.816,178.000 193.220,178.000 193.725 M276.909 196.400 C 276.909 197.390,276.987 197.795,277.082 197.300 C 277.178 196.805,277.178 195.995,277.082 195.500 C 276.987 195.005,276.909 195.410,276.909 196.400 M245.281 196.172 C 243.423 197.485,243.162 197.861,244.731 196.962 C 245.463 196.543,246.250 195.975,246.480 195.700 C 247.071 194.993,246.793 195.102,245.281 196.172 M127.616 201.356 C 127.568 202.437,133.697 219.510,133.906 218.881 C 133.985 218.645,133.762 217.606,133.411 216.573 C 133.060 215.539,132.851 214.615,132.947 214.520 C 133.042 214.424,133.332 214.988,133.591 215.773 C 133.850 216.558,134.192 217.200,134.351 217.200 C 134.509 217.200,134.875 217.875,135.163 218.700 C 135.955 220.971,137.301 223.600,137.671 223.600 C 138.155 223.600,138.052 223.103,137.387 222.224 C 137.064 221.796,136.800 221.121,136.800 220.724 C 136.800 220.326,136.632 220.000,136.427 220.000 C 136.222 220.000,135.939 219.637,135.798 219.193 C 135.657 218.750,134.385 215.969,132.971 213.015 C 131.557 210.060,130.400 207.533,130.400 207.399 C 130.400 207.266,130.014 206.311,129.542 205.278 C 129.069 204.245,128.446 202.860,128.157 202.200 C 127.868 201.540,127.624 201.160,127.616 201.356 M243.600 202.200 C 242.855 202.750,242.415 203.194,242.622 203.186 C 243.024 203.170,245.555 201.205,245.178 201.202 C 245.055 201.201,244.345 201.650,243.600 202.200 M158.000 202.803 C 158.550 203.254,160.260 204.541,161.800 205.663 C 163.340 206.786,166.404 209.435,168.609 211.552 L 172.618 215.400 168.409 211.200 C 163.540 206.341,162.979 205.862,159.550 203.638 C 158.148 202.728,157.450 202.353,158.000 202.803 M276.790 203.300 C 276.785 204.015,276.619 205.297,276.422 206.149 C 276.163 207.264,276.184 207.576,276.497 207.263 C 276.948 206.812,277.436 202.000,277.030 202.000 C 276.904 202.000,276.796 202.585,276.790 203.300 M234.770 204.263 L 233.800 205.327 235.100 204.388 C 236.452 203.412,236.625 203.200,236.070 203.200 C 235.888 203.200,235.303 203.679,234.770 204.263 M221.200 205.600 C 221.649 206.480,222.106 207.200,222.216 207.200 C 222.326 207.200,222.049 206.480,221.600 205.600 C 221.151 204.720,220.694 204.000,220.584 204.000 C 220.474 204.000,220.751 204.720,221.200 205.600 M194.379 205.778 C 194.907 206.340,195.400 206.800,195.473 206.800 C 195.834 206.800,194.539 205.185,194.018 204.986 C 193.688 204.859,193.851 205.216,194.379 205.778 M217.625 207.400 C 217.625 207.620,217.890 208.149,218.213 208.576 C 218.536 209.004,218.800 209.173,218.800 208.953 C 218.800 208.733,218.536 208.204,218.213 207.776 C 217.890 207.349,217.625 207.180,217.625 207.400 M235.200 209.281 C 233.990 210.406,233.540 210.955,234.200 210.500 C 235.339 209.715,237.946 207.180,237.575 207.218 C 237.479 207.228,236.410 208.157,235.200 209.281 M227.362 211.647 C 226.943 212.113,226.240 212.642,225.800 212.822 C 225.234 213.054,225.183 213.157,225.625 213.175 C 225.969 213.189,226.768 212.660,227.400 212.000 C 228.032 211.340,228.454 210.800,228.337 210.800 C 228.220 210.800,227.781 211.181,227.362 211.647 M231.200 213.400 C 230.228 214.390,229.523 215.200,229.633 215.200 C 229.743 215.200,230.628 214.390,231.600 213.400 C 232.572 212.410,233.277 211.600,233.167 211.600 C 233.057 211.600,232.172 212.410,231.200 213.400 M275.400 213.600 C 275.400 214.438,275.535 215.040,275.700 214.938 C 275.865 214.836,276.000 214.234,276.000 213.600 C 276.000 212.966,275.865 212.364,275.700 212.262 C 275.535 212.160,275.400 212.762,275.400 213.600 M120.480 213.400 C 120.480 214.060,120.624 215.050,120.800 215.600 C 121.111 216.572,121.120 216.567,121.120 215.400 C 121.120 214.740,120.976 213.750,120.800 213.200 C 120.489 212.228,120.480 212.233,120.480 213.400 M121.243 217.200 C 121.155 220.685,127.081 236.366,129.784 239.800 C 130.131 240.240,129.353 238.440,128.057 235.800 C 125.615 230.827,123.890 226.191,122.226 220.128 C 121.694 218.187,121.252 216.870,121.243 217.200 M279.351 217.507 C 279.025 218.030,279.034 218.329,279.388 218.660 C 279.752 219.000,279.867 218.831,279.867 217.953 C 279.867 216.591,279.903 216.622,279.351 217.507 M227.467 217.467 C 227.105 217.828,227.128 219.108,227.500 219.338 C 227.665 219.440,227.800 219.001,227.800 218.362 C 227.800 217.723,227.785 217.200,227.767 217.200 C 227.748 217.200,227.613 217.320,227.467 217.467 M175.600 219.600 C 176.070 220.260,176.544 220.800,176.654 220.800 C 176.764 220.800,176.470 220.260,176.000 219.600 C 175.530 218.940,175.056 218.400,174.946 218.400 C 174.836 218.400,175.130 218.940,175.600 219.600 M202.428 218.600 C 202.428 218.820,202.686 219.450,203.000 220.000 C 203.314 220.550,203.572 220.820,203.572 220.600 C 203.572 220.380,203.314 219.750,203.000 219.200 C 202.686 218.650,202.428 218.380,202.428 218.600 M134.031 219.900 C 134.047 220.065,134.587 221.280,135.229 222.600 C 136.489 225.189,136.424 224.260,135.143 221.364 C 134.434 219.761,133.952 219.126,134.031 219.900 M277.179 222.255 C 276.958 222.836,276.852 223.385,276.943 223.476 C 277.033 223.567,277.299 223.092,277.533 222.420 C 278.053 220.928,277.739 220.782,277.179 222.255 M248.975 222.900 L 247.800 224.200 249.100 223.025 C 249.815 222.379,250.400 221.794,250.400 221.725 C 250.400 221.416,250.070 221.688,248.975 222.900 M172.000 222.554 C 172.000 222.935,172.166 223.145,172.368 223.020 C 172.570 222.895,173.215 223.379,173.800 224.096 C 174.386 224.813,174.687 225.040,174.469 224.600 C 173.779 223.205,172.000 221.731,172.000 222.554 M138.001 224.300 C 138.004 224.819,139.634 227.300,139.838 227.096 C 139.945 226.988,139.647 226.248,139.177 225.450 C 138.340 224.031,137.998 223.698,138.001 224.300 M275.633 225.818 C 274.498 228.384,274.615 228.627,275.846 226.261 C 276.401 225.194,276.768 224.234,276.661 224.128 C 276.554 224.021,276.092 224.781,275.633 225.818 M277.854 225.243 C 277.764 225.549,277.134 227.320,276.456 229.177 C 274.870 233.517,275.025 234.008,276.715 230.000 C 277.508 228.120,278.398 225.065,278.208 224.875 C 278.104 224.771,277.945 224.936,277.854 225.243 M168.649 226.400 C 168.924 227.987,169.589 229.452,169.557 228.400 C 169.547 228.070,169.284 227.170,168.973 226.400 L 168.407 225.000 168.649 226.400 M137.092 227.100 C 138.158 229.457,142.980 238.838,143.988 240.517 C 145.773 243.489,145.224 241.615,143.350 238.338 C 140.395 233.169,138.843 230.047,138.387 228.352 C 138.157 227.498,137.796 226.800,137.585 226.800 C 137.373 226.800,137.200 226.530,137.200 226.200 C 137.200 225.870,137.023 225.600,136.806 225.600 C 136.590 225.600,136.718 226.275,137.092 227.100 M249.785 227.700 L 247.800 229.800 249.900 227.815 C 251.055 226.723,252.000 225.778,252.000 225.715 C 252.000 225.417,251.629 225.749,249.785 227.700 M269.686 228.812 C 269.240 229.713,269.120 230.233,269.413 229.989 C 269.898 229.587,270.932 227.200,270.621 227.200 C 270.545 227.200,270.125 227.926,269.686 228.812 M140.204 228.400 C 140.371 228.950,140.632 229.490,140.784 229.600 C 140.936 229.710,141.407 230.425,141.830 231.190 C 142.667 232.700,148.392 241.274,148.782 241.600 C 148.913 241.710,149.639 242.610,150.396 243.600 C 151.152 244.590,153.101 246.782,154.727 248.471 C 156.611 250.429,157.573 251.720,157.380 252.033 C 157.198 252.326,157.242 252.421,157.489 252.269 C 157.716 252.128,158.457 252.415,159.136 252.907 C 164.218 256.585,165.612 257.256,166.621 256.511 C 167.362 255.964,168.457 253.200,168.296 252.285 C 168.128 251.326,168.146 251.294,167.123 254.400 C 166.288 256.935,165.577 256.880,161.472 253.960 C 155.574 249.765,148.964 241.972,142.957 232.132 C 139.995 227.281,139.773 226.980,140.204 228.400 M272.379 232.291 C 271.180 234.417,269.839 236.617,269.397 237.179 C 268.955 237.740,267.982 239.100,267.235 240.200 C 266.488 241.300,265.310 242.830,264.617 243.600 C 262.429 246.030,262.217 246.701,264.364 244.400 C 267.523 241.013,275.280 229.146,274.708 228.575 C 274.625 228.492,273.577 230.164,272.379 232.291 M169.800 237.600 C 169.800 242.085,169.914 245.225,170.053 244.577 C 170.192 243.930,170.305 240.790,170.305 237.600 C 170.305 234.410,170.192 231.270,170.053 230.623 C 169.914 229.975,169.800 233.115,169.800 237.600 M203.212 230.800 C 203.212 231.130,203.387 231.670,203.600 232.000 C 203.945 232.533,203.988 232.533,203.988 232.000 C 203.988 231.670,203.813 231.130,203.600 230.800 C 203.255 230.267,203.212 230.267,203.212 230.800 M174.093 232.400 C 174.093 233.170,174.175 233.485,174.276 233.100 C 174.376 232.715,174.376 232.085,174.276 231.700 C 174.175 231.315,174.093 231.630,174.093 232.400 M240.744 231.900 C 239.593 233.289,239.106 234.000,239.304 234.000 C 239.414 234.000,239.986 233.370,240.573 232.600 C 241.663 231.171,241.795 230.632,240.744 231.900 M231.656 232.400 C 231.656 232.730,231.811 233.360,232.000 233.800 C 232.217 234.304,232.344 234.378,232.344 234.000 C 232.344 233.670,232.189 233.040,232.000 232.600 C 231.783 232.096,231.656 232.022,231.656 232.400 M266.185 234.900 C 265.568 235.835,265.320 236.389,265.632 236.131 C 266.233 235.634,267.764 233.200,267.476 233.200 C 267.383 233.200,266.802 233.965,266.185 234.900 M272.815 237.288 C 267.858 247.020,258.779 258.013,251.006 263.697 C 250.783 263.861,249.858 264.592,248.952 265.322 C 248.046 266.052,246.374 267.247,245.237 267.976 C 244.100 268.706,243.240 269.374,243.327 269.460 C 243.524 269.657,248.256 266.575,249.600 265.375 C 250.150 264.883,251.320 264.001,252.200 263.413 C 253.707 262.407,258.073 258.287,261.207 254.914 C 261.981 254.081,263.769 251.870,265.180 250.000 C 266.591 248.130,267.893 246.540,268.073 246.467 C 268.253 246.393,268.400 246.078,268.400 245.767 C 268.400 245.455,268.559 245.200,268.753 245.200 C 268.948 245.200,269.221 244.885,269.360 244.500 C 269.669 243.645,270.464 242.287,271.113 241.504 C 271.806 240.670,275.266 233.533,275.072 233.339 C 274.983 233.249,273.967 235.027,272.815 237.288 M174.531 237.400 C 174.533 238.940,174.605 239.521,174.692 238.691 C 174.779 237.861,174.777 236.601,174.689 235.891 C 174.600 235.181,174.529 235.860,174.531 237.400 M232.856 238.000 C 232.856 238.330,233.011 238.960,233.200 239.400 C 233.417 239.904,233.544 239.978,233.544 239.600 C 233.544 239.270,233.389 238.640,233.200 238.200 C 232.983 237.696,232.856 237.622,232.856 238.000 M130.545 241.401 C 132.382 246.188,142.756 258.275,149.200 263.137 C 150.850 264.382,152.438 265.625,152.729 265.900 C 153.019 266.175,153.379 266.390,153.529 266.379 C 153.678 266.367,153.197 265.872,152.459 265.279 C 147.381 261.193,145.326 259.331,141.984 255.791 C 137.943 251.510,134.686 247.346,132.214 243.300 C 130.755 240.913,130.050 240.110,130.545 241.401 M238.668 242.300 C 237.629 244.034,236.789 245.722,236.906 245.839 C 236.986 245.919,237.535 245.088,238.127 243.992 C 238.983 242.408,239.417 241.049,238.668 242.300 M145.556 243.100 C 148.965 249.321,157.045 258.008,162.877 261.723 C 167.555 264.702,178.827 269.706,179.453 269.081 C 179.563 268.970,178.967 268.660,178.127 268.391 C 176.778 267.960,171.601 265.752,168.200 264.159 C 163.767 262.082,158.991 258.662,159.461 257.901 C 159.638 257.615,159.483 257.559,159.009 257.741 C 158.106 258.088,152.400 252.439,152.400 251.198 C 152.400 250.759,152.142 250.400,151.827 250.400 C 151.512 250.400,150.846 249.815,150.347 249.100 C 149.847 248.385,149.335 247.710,149.208 247.600 C 149.081 247.490,148.263 246.277,147.389 244.903 C 145.977 242.685,144.569 241.300,145.556 243.100 M206.644 243.800 C 206.973 245.271,207.202 245.590,207.194 244.567 C 207.191 244.145,207.005 243.530,206.782 243.200 C 206.485 242.762,206.448 242.924,206.644 243.800 M230.101 246.200 C 230.105 247.080,230.187 247.393,230.283 246.895 C 230.379 246.398,230.375 245.678,230.275 245.295 C 230.175 244.913,230.096 245.320,230.101 246.200 M183.256 246.000 C 183.256 246.330,183.411 246.960,183.600 247.400 C 183.817 247.904,183.944 247.978,183.944 247.600 C 183.944 247.270,183.789 246.640,183.600 246.200 C 183.383 245.696,183.256 245.622,183.256 246.000 M169.084 247.400 C 168.951 247.840,168.745 248.920,168.626 249.800 C 168.424 251.284,168.451 251.255,168.996 249.400 C 169.319 248.300,169.526 247.220,169.455 247.000 C 169.383 246.780,169.217 246.960,169.084 247.400 M261.097 247.500 C 256.793 252.184,248.490 259.200,247.250 259.200 C 247.039 259.200,246.807 259.344,246.733 259.519 C 246.660 259.695,245.891 260.202,245.024 260.646 C 244.158 261.090,243.373 261.680,243.281 261.958 C 243.007 262.779,249.358 258.646,253.121 255.555 C 258.457 251.172,262.965 246.800,262.148 246.800 C 261.924 246.800,261.451 247.115,261.097 247.500 M252.175 250.900 L 251.000 252.200 252.300 251.025 C 253.015 250.379,253.600 249.794,253.600 249.725 C 253.600 249.416,253.270 249.688,252.175 250.900 M184.287 252.066 C 184.529 254.997,184.732 255.395,184.762 253.000 C 184.776 251.900,184.635 250.760,184.449 250.466 C 184.251 250.154,184.184 250.818,184.287 252.066 M234.928 252.800 C 234.928 254.230,235.001 254.815,235.089 254.100 C 235.178 253.385,235.178 252.215,235.089 251.500 C 235.001 250.785,234.928 251.370,234.928 252.800 M208.101 253.800 C 208.105 254.680,208.187 254.993,208.283 254.495 C 208.379 253.998,208.375 253.278,208.275 252.895 C 208.175 252.513,208.096 252.920,208.101 253.800 M188.909 255.200 C 188.909 256.190,188.987 256.595,189.082 256.100 C 189.178 255.605,189.178 254.795,189.082 254.300 C 188.987 253.805,188.909 254.210,188.909 255.200 M171.049 255.415 C 170.912 255.773,170.815 256.366,170.834 256.733 C 170.853 257.100,171.027 256.869,171.221 256.220 C 171.598 254.958,171.465 254.333,171.049 255.415 M184.934 258.400 C 184.934 260.050,185.005 260.725,185.091 259.900 C 185.178 259.075,185.178 257.725,185.091 256.900 C 185.005 256.075,184.934 256.750,184.934 258.400 M235.320 258.400 C 235.320 259.610,235.395 260.105,235.487 259.500 C 235.578 258.895,235.578 257.905,235.487 257.300 C 235.395 256.695,235.320 257.190,235.320 258.400 M184.909 263.200 C 184.909 264.190,184.987 264.595,185.082 264.100 C 185.178 263.605,185.178 262.795,185.082 262.300 C 184.987 261.805,184.909 262.210,184.909 263.200 M240.238 263.400 C 239.428 263.950,238.547 264.401,238.282 264.402 C 238.017 264.403,237.080 264.848,236.200 265.390 C 235.320 265.932,234.285 266.381,233.900 266.388 C 233.515 266.394,233.200 266.580,233.200 266.800 C 233.200 267.020,232.743 267.200,232.184 267.200 C 231.140 267.200,227.779 268.713,228.104 269.037 C 228.551 269.484,242.800 263.250,242.800 262.607 C 242.800 262.106,241.595 262.479,240.238 263.400 M207.980 266.690 C 207.871 267.619,207.933 268.227,208.120 268.040 C 208.306 267.854,208.396 267.094,208.319 266.351 C 208.183 265.033,208.175 265.042,207.980 266.690 M154.800 267.162 C 155.972 268.171,161.041 271.271,162.200 271.688 C 163.265 272.071,162.641 271.647,158.800 269.373 C 157.150 268.396,155.350 267.305,154.800 266.949 L 153.800 266.302 154.800 267.162 M191.400 267.981 C 192.168 268.329,194.310 268.556,193.967 268.253 C 193.875 268.172,193.080 267.996,192.200 267.862 C 191.085 267.693,190.842 267.729,191.400 267.981 M212.900 268.276 C 213.285 268.376,213.915 268.376,214.300 268.276 C 214.685 268.175,214.370 268.093,213.600 268.093 C 212.830 268.093,212.515 268.175,212.900 268.276 M203.900 269.082 C 204.395 269.178,205.205 269.178,205.700 269.082 C 206.195 268.987,205.790 268.909,204.800 268.909 C 203.810 268.909,203.405 268.987,203.900 269.082 M180.259 269.576 C 180.447 269.740,182.310 270.270,184.400 270.753 C 186.490 271.236,188.851 271.805,189.646 272.016 C 190.442 272.227,191.792 272.384,192.646 272.365 C 193.879 272.337,193.580 272.207,191.200 271.739 C 189.550 271.414,186.337 270.728,184.059 270.214 C 181.782 269.699,180.072 269.413,180.259 269.576 M225.800 269.480 C 223.554 270.006,220.760 270.893,220.903 271.036 C 221.114 271.247,226.706 269.828,227.061 269.472 C 227.352 269.181,227.071 269.183,225.800 269.480 M240.510 270.774 C 238.974 271.785,238.680 272.400,239.733 272.400 C 239.953 272.400,240.012 272.279,239.864 272.131 C 239.717 271.983,240.362 271.354,241.298 270.733 C 242.234 270.112,242.820 269.617,242.600 269.633 C 242.380 269.649,241.439 270.163,240.510 270.774 M215.000 272.000 L 214.200 272.344 215.000 272.332 C 215.440 272.326,216.250 272.176,216.800 272.000 L 217.800 271.680 216.800 271.668 C 216.250 271.662,215.440 271.811,215.000 272.000 M163.400 272.329 C 163.942 272.890,167.562 274.651,168.800 274.957 L 169.800 275.204 168.800 274.726 C 168.250 274.463,166.720 273.723,165.400 273.082 C 164.080 272.440,163.180 272.102,163.400 272.329 M235.400 273.354 C 233.221 274.491,231.716 275.178,228.200 276.640 C 227.540 276.915,227.290 277.153,227.645 277.170 C 228.222 277.197,230.651 276.206,235.400 274.006 C 237.113 273.213,238.860 272.001,238.200 272.063 C 237.980 272.084,236.720 272.665,235.400 273.354 M196.600 272.857 C 199.722 273.190,207.595 273.193,210.400 272.860 C 211.610 272.717,208.460 272.600,203.400 272.600 C 198.340 272.600,195.280 272.715,196.600 272.857 M170.220 275.555 C 170.429 275.750,171.050 276.028,171.600 276.172 L 172.600 276.433 171.600 275.831 C 170.486 275.159,169.609 274.984,170.220 275.555 M173.400 276.692 C 173.959 277.265,177.897 278.502,178.502 278.295 C 178.776 278.201,177.972 277.823,176.715 277.455 C 175.458 277.087,174.108 276.673,173.715 276.534 C 173.231 276.364,173.129 276.414,173.400 276.692 M225.200 277.488 C 224.650 277.587,224.029 277.832,223.820 278.034 C 223.212 278.620,224.879 278.441,226.000 277.800 C 227.025 277.214,226.932 277.178,225.200 277.488 M179.303 278.637 C 179.727 279.060,186.161 280.381,187.600 280.339 C 188.602 280.311,188.205 280.150,186.200 279.773 C 184.660 279.483,182.590 279.063,181.600 278.840 C 179.470 278.360,178.984 278.317,179.303 278.637 M220.000 278.912 C 219.010 279.146,218.470 279.396,218.800 279.466 C 219.130 279.537,220.300 279.342,221.400 279.033 C 223.729 278.379,222.646 278.285,220.000 278.912 M213.440 280.042 C 212.142 280.231,210.987 280.480,210.873 280.594 C 210.595 280.872,215.532 280.352,216.800 279.970 L 217.800 279.669 216.800 279.683 C 216.250 279.691,214.738 279.852,213.440 280.042 M193.400 281.254 C 195.409 281.631,204.733 281.625,207.400 281.245 C 208.563 281.079,205.719 280.958,200.600 280.957 C 195.536 280.955,192.479 281.081,193.400 281.254 " stroke="none" fill="#cbf1d5" fill-rule="evenodd"></path><path id="path7" d="M134.953 152.492 C 134.319 153.423,133.651 154.458,133.469 154.792 C 132.971 155.706,134.718 153.562,135.484 152.319 C 135.852 151.722,136.608 151.167,137.175 151.079 L 138.200 150.920 137.153 150.860 C 136.339 150.813,135.850 151.175,134.953 152.492 M142.600 152.000 C 143.040 152.189,143.670 152.344,144.000 152.344 C 144.378 152.344,144.304 152.217,143.800 152.000 C 143.360 151.811,142.730 151.656,142.400 151.656 C 142.022 151.656,142.096 151.783,142.600 152.000 M146.200 152.800 C 146.640 152.989,147.270 153.144,147.600 153.144 C 147.978 153.144,147.904 153.017,147.400 152.800 C 146.960 152.611,146.330 152.456,146.000 152.456 C 145.622 152.456,145.696 152.583,146.200 152.800 M163.600 158.600 C 164.150 158.914,164.780 159.172,165.000 159.172 C 165.220 159.172,164.950 158.914,164.400 158.600 C 163.850 158.286,163.220 158.028,163.000 158.028 C 162.780 158.028,163.050 158.286,163.600 158.600 M168.000 160.600 C 168.550 160.914,169.180 161.172,169.400 161.172 C 169.620 161.172,169.350 160.914,168.800 160.600 C 168.250 160.286,167.620 160.028,167.400 160.028 C 167.180 160.028,167.450 160.286,168.000 160.600 M170.000 161.384 C 170.000 161.494,170.720 161.951,171.600 162.400 C 172.480 162.849,173.200 163.126,173.200 163.016 C 173.200 162.906,172.480 162.449,171.600 162.000 C 170.720 161.551,170.000 161.274,170.000 161.384 M268.000 166.677 C 268.550 166.789,269.149 167.088,269.330 167.340 C 269.551 167.648,269.607 167.601,269.500 167.200 C 269.409 166.862,268.829 166.572,268.169 166.537 C 267.162 166.482,267.139 166.501,268.000 166.677 M126.800 167.512 C 126.800 168.096,128.394 168.528,129.659 168.288 C 130.328 168.161,130.189 168.093,129.180 168.054 C 128.399 168.025,127.544 167.784,127.280 167.520 C 126.915 167.155,126.800 167.153,126.800 167.512 M135.800 169.200 C 136.240 169.389,136.960 169.538,137.400 169.532 C 138.043 169.523,138.004 169.457,137.200 169.200 C 135.832 168.762,134.781 168.762,135.800 169.200 M184.600 170.280 C 184.820 170.488,185.810 171.246,186.800 171.965 L 188.600 173.272 187.200 172.008 C 185.974 170.901,183.556 169.294,184.600 170.280 M127.243 172.765 C 126.614 173.163,127.514 174.710,129.241 176.200 C 129.751 176.640,129.499 176.201,128.680 175.224 C 127.173 173.424,127.160 173.032,128.600 172.685 L 129.400 172.493 128.600 172.453 C 128.160 172.430,127.549 172.571,127.243 172.765 M130.100 173.076 C 130.485 173.176,131.115 173.176,131.500 173.076 C 131.885 172.975,131.570 172.893,130.800 172.893 C 130.030 172.893,129.715 172.975,130.100 173.076 M188.800 173.303 C 188.800 173.400,189.925 174.449,191.300 175.632 C 192.675 176.816,193.548 177.468,193.241 177.080 C 192.594 176.266,188.800 173.038,188.800 173.303 M159.600 176.590 C 159.600 176.700,160.860 177.424,162.400 178.200 C 163.940 178.976,165.200 179.520,165.200 179.410 C 165.200 179.300,163.940 178.576,162.400 177.800 C 160.860 177.024,159.600 176.480,159.600 176.590 M239.896 177.750 C 237.975 178.931,237.438 179.489,239.000 178.681 C 240.254 178.033,241.945 176.826,241.600 176.825 C 241.490 176.825,240.723 177.241,239.896 177.750 M131.183 178.700 C 131.926 179.635,132.606 180.400,132.694 180.400 C 132.977 180.400,131.263 178.149,130.535 177.564 C 130.148 177.254,130.440 177.765,131.183 178.700 M199.000 182.800 C 200.971 184.780,202.673 186.400,202.783 186.400 C 202.893 186.400,201.371 184.780,199.400 182.800 C 197.429 180.820,195.727 179.200,195.617 179.200 C 195.507 179.200,197.029 180.820,199.000 182.800 M234.200 181.435 L 233.000 182.466 234.300 181.606 C 235.015 181.133,235.600 180.668,235.600 180.573 C 235.600 180.273,235.431 180.378,234.200 181.435 M134.000 182.200 C 134.746 182.970,135.447 183.600,135.557 183.600 C 135.667 183.600,135.146 182.970,134.400 182.200 C 133.654 181.430,132.953 180.800,132.843 180.800 C 132.733 180.800,133.254 181.430,134.000 182.200 M137.600 186.200 C 138.795 187.410,139.863 188.400,139.973 188.400 C 140.083 188.400,139.195 187.410,138.000 186.200 C 136.805 184.990,135.737 184.000,135.627 184.000 C 135.517 184.000,136.405 184.990,137.600 186.200 M263.000 187.014 C 262.000 187.496,261.966 187.551,262.800 187.348 C 263.933 187.071,265.207 186.421,264.600 186.430 C 264.380 186.433,263.660 186.696,263.000 187.014 M178.488 188.613 C 179.086 189.243,179.647 189.677,179.735 189.579 C 179.823 189.480,179.333 188.965,178.647 188.434 L 177.400 187.469 178.488 188.613 M170.400 188.111 C 170.400 188.187,170.985 188.678,171.700 189.201 C 172.504 189.790,172.784 189.887,172.433 189.455 C 171.900 188.799,170.400 187.807,170.400 188.111 M144.400 192.934 C 146.710 195.310,148.960 197.446,149.400 197.681 C 149.840 197.916,150.110 198.038,150.000 197.951 C 149.890 197.864,147.640 195.728,145.000 193.204 L 140.200 188.615 144.400 192.934 M206.774 191.500 C 207.737 192.655,208.602 193.600,208.696 193.600 C 208.968 193.600,206.504 190.582,205.726 189.962 C 205.339 189.653,205.810 190.345,206.774 191.500 M181.800 191.600 C 182.659 192.480,183.452 193.200,183.562 193.200 C 183.672 193.200,183.059 192.480,182.200 191.600 C 181.341 190.720,180.548 190.000,180.438 190.000 C 180.328 190.000,180.941 190.720,181.800 191.600 M250.100 193.026 C 249.165 193.587,248.400 194.140,248.400 194.255 C 248.400 194.471,251.099 192.938,251.780 192.336 C 252.467 191.728,251.827 191.991,250.100 193.026 M178.000 194.200 C 178.746 194.970,179.447 195.600,179.557 195.600 C 179.667 195.600,179.146 194.970,178.400 194.200 C 177.654 193.430,176.953 192.800,176.843 192.800 C 176.733 192.800,177.254 193.430,178.000 194.200 M186.000 195.400 C 187.195 196.610,188.263 197.600,188.373 197.600 C 188.483 197.600,187.595 196.610,186.400 195.400 C 185.205 194.190,184.137 193.200,184.027 193.200 C 183.917 193.200,184.805 194.190,186.000 195.400 M217.836 194.763 C 216.996 195.623,216.405 196.568,216.523 196.863 C 216.691 197.284,216.744 197.274,216.768 196.817 C 216.786 196.496,217.467 195.551,218.281 194.717 C 219.096 193.883,219.672 193.200,219.562 193.200 C 219.452 193.200,218.675 193.904,217.836 194.763 M276.493 195.600 C 276.493 196.370,276.575 196.685,276.676 196.300 C 276.776 195.915,276.776 195.285,276.676 194.900 C 276.575 194.515,276.493 194.830,276.493 195.600 M249.200 198.800 C 248.210 199.458,247.539 199.997,247.709 199.998 C 248.057 200.000,251.200 197.974,251.200 197.747 C 251.200 197.492,251.042 197.575,249.200 198.800 M276.920 200.000 C 276.920 201.210,276.995 201.705,277.087 201.100 C 277.178 200.495,277.178 199.505,277.087 198.900 C 276.995 198.295,276.920 198.790,276.920 200.000 M190.400 200.264 C 190.400 200.482,190.895 201.097,191.500 201.630 L 192.600 202.600 191.600 201.400 C 191.050 200.740,190.555 200.125,190.500 200.033 C 190.445 199.942,190.400 200.045,190.400 200.264 M236.975 202.100 L 235.800 203.400 237.100 202.225 C 237.815 201.579,238.400 200.994,238.400 200.925 C 238.400 200.616,238.070 200.888,236.975 202.100 M187.192 203.516 C 189.363 205.983,190.325 206.846,188.929 205.075 C 187.284 202.988,186.158 201.745,185.598 201.399 C 185.272 201.197,185.989 202.150,187.192 203.516 M244.200 202.235 L 243.000 203.266 244.300 202.406 C 245.015 201.933,245.600 201.468,245.600 201.373 C 245.600 201.073,245.431 201.178,244.200 202.235 M157.775 202.359 C 157.897 202.557,158.639 203.098,159.423 203.560 C 160.207 204.023,160.748 204.239,160.625 204.041 C 160.503 203.843,159.761 203.302,158.977 202.840 C 158.193 202.377,157.652 202.161,157.775 202.359 M231.400 207.068 C 230.520 207.857,230.160 208.316,230.600 208.088 C 231.341 207.704,233.551 205.579,233.170 205.617 C 233.076 205.626,232.280 206.279,231.400 207.068 M190.391 207.588 C 190.857 208.241,191.442 208.902,191.691 209.056 C 191.941 209.211,191.641 208.676,191.025 207.868 C 189.688 206.115,189.184 205.892,190.391 207.588 M236.581 208.500 L 235.000 210.200 236.700 208.619 C 238.281 207.148,238.584 206.800,238.281 206.800 C 238.216 206.800,237.451 207.565,236.581 208.500 M169.384 212.000 C 175.024 217.955,175.256 218.180,173.301 215.800 C 172.398 214.700,170.167 212.360,168.343 210.600 C 165.568 207.921,165.737 208.149,169.384 212.000 M198.002 210.633 C 198.003 210.835,198.468 211.540,199.035 212.200 L 200.066 213.400 199.163 212.000 C 198.004 210.204,198.000 210.199,198.002 210.633 M226.894 211.612 C 226.175 212.265,225.737 212.800,225.919 212.800 C 226.101 212.800,226.768 212.260,227.400 211.600 C 228.870 210.065,228.586 210.072,226.894 211.612 M220.881 214.591 C 221.359 215.576,221.819 216.314,221.903 216.230 C 222.084 216.049,220.468 212.800,220.197 212.800 C 220.094 212.800,220.402 213.606,220.881 214.591 M229.861 215.170 C 228.372 216.731,227.612 217.858,227.634 218.470 C 227.665 219.288,227.711 219.260,228.017 218.234 C 228.209 217.593,228.509 216.958,228.683 216.823 C 229.382 216.284,232.552 212.800,232.344 212.800 C 232.222 212.800,231.104 213.867,229.861 215.170 M260.400 214.036 C 259.736 214.579,259.669 214.715,260.200 214.440 C 261.505 213.766,262.228 213.212,261.800 213.215 C 261.580 213.217,260.950 213.586,260.400 214.036 M254.658 217.818 C 253.636 218.598,252.800 219.334,252.800 219.452 C 252.800 219.633,255.327 217.813,256.580 216.729 C 257.646 215.806,256.275 216.583,254.658 217.818 M279.326 218.171 C 279.065 218.468,278.946 219.136,279.061 219.655 C 279.208 220.322,279.158 220.443,278.890 220.066 C 278.591 219.645,278.469 219.695,278.310 220.300 C 278.184 220.783,278.315 221.067,278.664 221.067 C 278.969 221.067,279.321 220.602,279.446 220.033 C 279.572 219.465,279.760 218.685,279.864 218.300 C 280.089 217.470,279.966 217.441,279.326 218.171 M247.689 223.900 C 243.512 228.025,243.490 228.054,247.167 224.618 C 249.275 222.648,251.355 220.713,251.789 220.318 C 252.223 219.923,252.458 219.600,252.311 219.600 C 252.164 219.600,250.084 221.535,247.689 223.900 M253.107 224.900 C 250.842 227.091,250.800 227.157,252.762 225.433 C 256.009 222.579,256.196 222.400,255.931 222.400 C 255.799 222.400,254.528 223.525,253.107 224.900 M172.422 223.600 C 172.417 224.150,172.601 224.870,172.832 225.200 C 173.161 225.670,173.197 225.605,172.999 224.900 C 172.850 224.371,172.922 224.000,173.173 224.000 C 173.408 224.000,173.606 224.135,173.614 224.300 C 173.622 224.465,174.088 225.140,174.650 225.800 C 175.212 226.460,175.488 226.640,175.263 226.200 C 174.228 224.169,172.433 222.526,172.422 223.600 M173.680 228.600 C 173.680 229.040,173.824 229.850,174.000 230.400 C 174.254 231.192,174.320 231.233,174.320 230.600 C 174.320 230.160,174.176 229.350,174.000 228.800 C 173.746 228.008,173.680 227.967,173.680 228.600 M182.282 230.189 C 182.873 231.393,183.423 232.311,183.505 232.229 C 183.684 232.049,181.667 228.000,181.398 228.000 C 181.294 228.000,181.692 228.985,182.282 230.189 M248.181 229.700 L 246.600 231.400 248.300 229.819 C 249.235 228.949,250.000 228.184,250.000 228.119 C 250.000 227.816,249.652 228.119,248.181 229.700 M202.467 229.620 C 202.701 230.292,202.967 230.767,203.057 230.676 C 203.256 230.478,202.501 228.400,202.231 228.400 C 202.127 228.400,202.233 228.949,202.467 229.620 M242.159 229.700 C 240.407 231.721,239.887 232.400,240.090 232.400 C 240.207 232.400,240.967 231.590,241.779 230.600 C 243.281 228.766,243.579 228.063,242.159 229.700 M244.566 233.700 C 242.939 235.805,241.908 237.384,242.673 236.600 C 243.248 236.010,245.830 232.680,246.162 232.100 C 246.767 231.040,246.123 231.685,244.566 233.700 M238.800 234.000 C 238.330 234.660,238.036 235.200,238.146 235.200 C 238.256 235.200,238.730 234.660,239.200 234.000 C 239.670 233.340,239.964 232.800,239.854 232.800 C 239.744 232.800,239.270 233.340,238.800 234.000 M227.844 235.000 C 228.173 236.471,228.402 236.790,228.394 235.767 C 228.391 235.345,228.205 234.730,227.982 234.400 C 227.685 233.962,227.648 234.124,227.844 235.000 M262.555 239.481 C 261.707 240.516,261.222 241.234,261.477 241.076 C 262.021 240.740,264.555 237.600,264.282 237.600 C 264.180 237.600,263.403 238.447,262.555 239.481 M210.468 240.600 C 210.462 241.040,210.611 241.760,210.800 242.200 C 211.238 243.219,211.238 242.168,210.800 240.800 C 210.543 239.996,210.477 239.957,210.468 240.600 M233.720 240.561 C 233.930 241.189,234.684 241.279,234.905 240.703 C 235.031 240.376,234.817 240.171,234.350 240.171 C 233.932 240.171,233.649 240.347,233.720 240.561 M259.600 243.000 C 258.854 243.770,258.413 244.387,258.622 244.371 C 258.982 244.344,261.454 241.600,261.118 241.600 C 261.029 241.600,260.346 242.230,259.600 243.000 M174.093 244.800 C 174.093 245.570,174.175 245.885,174.276 245.500 C 174.376 245.115,174.376 244.485,174.276 244.100 C 174.175 243.715,174.093 244.030,174.093 244.800 M211.693 247.600 C 211.693 248.370,211.775 248.685,211.876 248.300 C 211.976 247.915,211.976 247.285,211.876 246.900 C 211.775 246.515,211.693 246.830,211.693 247.600 M236.065 248.217 C 235.395 249.688,235.523 250.002,236.247 248.665 C 236.586 248.040,236.788 247.454,236.696 247.363 C 236.605 247.271,236.321 247.656,236.065 248.217 M230.274 250.200 C 230.398 251.740,230.566 253.075,230.649 253.167 C 230.927 253.474,230.758 250.617,230.402 249.000 C 230.131 247.770,230.102 248.048,230.274 250.200 M250.493 251.754 C 247.401 254.249,247.011 254.823,249.883 252.655 C 251.971 251.078,253.227 249.916,252.724 250.027 C 252.656 250.042,251.652 250.819,250.493 251.754 M207.701 253.400 C 207.705 254.280,207.787 254.593,207.883 254.095 C 207.979 253.598,207.975 252.878,207.875 252.495 C 207.775 252.113,207.696 252.520,207.701 253.400 M235.314 254.600 C 235.317 255.700,235.395 256.103,235.487 255.495 C 235.579 254.886,235.577 253.986,235.482 253.495 C 235.387 253.003,235.311 253.500,235.314 254.600 M184.514 256.600 C 184.517 257.700,184.595 258.103,184.687 257.495 C 184.779 256.886,184.777 255.986,184.682 255.495 C 184.587 255.003,184.511 255.500,184.514 256.600 M212.557 260.000 C 212.557 262.970,212.620 264.185,212.697 262.700 C 212.774 261.215,212.774 258.785,212.697 257.300 C 212.620 255.815,212.557 257.030,212.557 260.000 M208.155 260.200 C 208.156 263.060,208.220 264.178,208.297 262.683 C 208.374 261.189,208.374 258.849,208.296 257.483 C 208.218 256.118,208.155 257.340,208.155 260.200 M170.485 258.013 C 170.218 258.440,170.007 259.017,170.016 259.295 C 170.025 259.573,170.309 259.289,170.647 258.665 C 171.350 257.368,171.218 256.838,170.485 258.013 M189.337 260.200 C 189.339 261.960,189.409 262.630,189.493 261.689 C 189.578 260.749,189.577 259.309,189.491 258.489 C 189.405 257.670,189.336 258.440,189.337 260.200 M240.500 258.626 C 239.565 259.187,238.800 259.740,238.800 259.855 C 238.800 260.071,241.499 258.538,242.180 257.936 C 242.867 257.328,242.227 257.591,240.500 258.626 M171.103 261.100 C 171.621 261.595,172.260 261.995,172.522 261.988 C 172.785 261.981,172.640 261.776,172.200 261.532 C 171.760 261.288,171.121 260.888,170.780 260.644 C 170.440 260.400,170.585 260.605,171.103 261.100 M184.380 264.290 C 184.271 265.219,184.333 265.827,184.520 265.640 C 184.706 265.454,184.796 264.694,184.719 263.951 C 184.583 262.633,184.575 262.642,184.380 264.290 M207.693 266.800 C 207.693 267.570,207.775 267.885,207.876 267.500 C 207.976 267.115,207.976 266.485,207.876 266.100 C 207.775 265.715,207.693 266.030,207.693 266.800 M222.600 266.000 C 222.096 266.217,222.022 266.344,222.400 266.344 C 222.730 266.344,223.360 266.189,223.800 266.000 C 224.304 265.783,224.378 265.656,224.000 265.656 C 223.670 265.656,223.040 265.811,222.600 266.000 M219.200 266.800 C 218.396 267.057,218.357 267.123,219.000 267.132 C 219.440 267.138,220.160 266.989,220.600 266.800 C 221.619 266.362,220.568 266.362,219.200 266.800 M212.400 267.680 C 212.400 267.856,213.030 268.000,213.800 268.000 C 214.570 268.000,215.200 267.930,215.200 267.844 C 215.200 267.758,214.570 267.614,213.800 267.524 C 213.030 267.434,212.400 267.504,212.400 267.680 M194.500 268.276 C 194.885 268.376,195.515 268.376,195.900 268.276 C 196.285 268.175,195.970 268.093,195.200 268.093 C 194.430 268.093,194.115 268.175,194.500 268.276 M200.716 268.697 C 202.099 268.775,204.259 268.774,205.516 268.695 C 206.772 268.616,205.640 268.552,203.000 268.553 C 200.360 268.553,199.332 268.618,200.716 268.697 " stroke="none" fill="#cddcc1" fill-rule="evenodd"></path><path id="path8" d="M125.215 194.227 C 125.190 195.594,126.431 199.313,127.265 200.374 C 127.749 200.988,127.961 201.701,127.823 202.250 C 127.701 202.736,127.782 203.554,128.003 204.067 C 128.342 204.856,128.366 204.791,128.159 203.650 C 127.990 202.714,128.050 202.384,128.357 202.574 C 128.601 202.724,128.795 202.702,128.789 202.524 C 128.761 201.700,125.228 193.499,125.215 194.227 " stroke="none" fill="#6cecac" fill-rule="evenodd"></path></g></svg>