<?xml version="1.0" standalone="no"?>
<!DOCTYPE svg PUBLIC "-//W3C//DTD SVG 20010904//EN"
 "http://www.w3.org/TR/2001/REC-SVG-20010904/DTD/svg10.dtd">
<svg version="1.0" xmlns="http://www.w3.org/2000/svg"
 width="640.000000pt" height="640.000000pt" viewBox="0 0 640.000000 640.000000"
 preserveAspectRatio="xMidYMid meet">

<g transform="translate(0.000000,640.000000) scale(0.100000,-0.100000)"
fill="#000000" stroke="none">
<path d="M2186 3961 c-4 -5 3 -7 14 -4 23 6 26 13 6 13 -8 0 -17 -4 -20 -9z"/>
<path d="M2275 3950 c3 -5 8 -10 11 -10 2 0 4 5 4 10 0 6 -5 10 -11 10 -5 0
-7 -4 -4 -10z"/>
<path d="M2153 3929 c-6 -6 -9 -18 -6 -27 4 -10 2 -13 -5 -8 -8 5 -10 2 -6 -9
8 -20 17 -12 19 18 1 16 8 22 23 21 12 0 22 3 22 8 0 12 -34 10 -47 -3z"/>
<path d="M2348 3933 c7 -3 16 -2 19 1 4 3 -2 6 -13 5 -11 0 -14 -3 -6 -6z"/>
<path d="M2380 3926 c0 -2 9 -6 20 -9 11 -3 20 -1 20 4 0 5 -9 9 -20 9 -11 0
-20 -2 -20 -4z"/>
<path d="M2450 3907 c8 -8 29 -17 45 -20 29 -6 29 -6 5 4 -14 6 -34 16 -45 21
-18 9 -18 9 -5 -5z"/>
<path d="M2520 3870 c-11 -8 -8 -9 13 -4 17 4 27 2 27 -6 0 -6 5 -8 11 -4 8 4
7 9 -2 15 -18 11 -31 11 -49 -1z"/>
<path d="M2633 3839 c9 -6 15 -14 12 -20 -4 -5 -2 -9 4 -9 20 0 21 19 2 29
-25 14 -42 14 -18 0z"/>
<path d="M2096 3825 c-3 -8 -1 -15 3 -15 5 0 11 7 15 15 3 8 1 15 -3 15 -5 0
-11 -7 -15 -15z"/>
<path d="M2680 3811 c0 -4 -10 -13 -22 -20 -17 -9 -18 -10 -3 -5 49 16 68 17
60 3 -5 -8 -5 -11 0 -7 4 4 20 1 36 -8 39 -20 37 -10 -3 13 -44 26 -68 34 -68
24z"/>
<path d="M2678 3773 c7 -3 16 -2 19 1 4 3 -2 6 -13 5 -11 0 -14 -3 -6 -6z"/>
<path d="M2046 3735 c-3 -8 -3 -15 0 -15 3 0 12 7 20 15 13 13 13 15 1 15 -8
0 -17 -7 -21 -15z"/>
<path d="M2138 3743 c7 -3 16 -2 19 1 4 3 -2 6 -13 5 -11 0 -14 -3 -6 -6z"/>
<path d="M2218 3733 c7 -3 16 -2 19 1 4 3 -2 6 -13 5 -11 0 -14 -3 -6 -6z"/>
<path d="M2820 3718 c12 -10 27 -18 34 -18 6 0 3 5 -7 11 -9 6 -15 13 -13 17
3 4 -5 8 -16 8 -19 0 -19 -1 2 -18z"/>
<path d="M2121 3726 c2 -2 22 -9 44 -15 36 -9 38 -9 21 4 -17 13 -77 23 -65
11z"/>
<path d="M2870 3713 c0 -6 7 -14 16 -17 8 -3 12 -10 9 -16 -3 -6 1 -7 10 -4 9
4 15 7 13 8 -2 1 -13 10 -25 20 -13 11 -23 14 -23 9z"/>
<path d="M4216 3704 c-26 -9 -46 -17 -44 -19 2 -2 26 2 53 10 57 18 68 18 60
5 -3 -5 1 -10 9 -10 10 0 13 6 10 15 -7 18 -25 18 -88 -1z"/>
<path d="M2235 3700 c-3 -6 1 -7 9 -4 18 7 21 14 7 14 -6 0 -13 -4 -16 -10z"/>
<path d="M2270 3690 c0 -5 5 -10 11 -10 5 0 7 5 4 10 -3 6 -8 10 -11 10 -2 0
-4 -4 -4 -10z"/>
<path d="M2311 3676 c2 -2 20 -6 39 -10 25 -4 31 -3 20 4 -14 9 -69 15 -59 6z"/>
<path d="M2428 3663 c7 -3 16 -2 19 1 4 3 -2 6 -13 5 -11 0 -14 -3 -6 -6z"/>
<path d="M2924 3661 c3 -5 16 -11 28 -14 22 -6 22 -5 4 8 -22 17 -40 20 -32 6z"/>
<path d="M4062 3649 c-29 -12 -52 -23 -50 -24 2 -2 33 7 68 20 36 13 58 24 50
24 -8 0 -39 -9 -68 -20z"/>
<path d="M2450 3650 c-18 -12 -2 -12 25 0 13 6 15 9 5 9 -8 0 -22 -4 -30 -9z"/>
<path d="M2484 3625 c22 -17 40 -20 32 -6 -3 5 -16 11 -28 14 -22 6 -22 5 -4
-8z"/>
<path d="M2980 3629 c0 -6 -9 -8 -21 -4 -19 6 -20 5 -8 -8 9 -9 18 -12 24 -6
12 12 28 12 20 -1 -3 -5 1 -10 9 -10 22 0 20 13 -4 28 -13 8 -20 9 -20 1z"/>
<path d="M2055 3620 c3 -5 16 -10 28 -9 21 0 21 1 2 9 -28 12 -37 12 -30 0z"/>
<path d="M4055 3620 c-16 -6 -14 -8 12 -7 18 0 30 4 27 9 -6 10 -12 9 -39 -2z"/>
<path d="M3963 3608 c-13 -6 -23 -15 -23 -20 0 -7 31 8 59 29 10 7 -16 1 -36
-9z"/>
<path d="M2178 3603 c7 -3 16 -2 19 1 4 3 -2 6 -13 5 -11 0 -14 -3 -6 -6z"/>
<path d="M2248 3588 c5 -5 16 -8 23 -6 8 3 3 7 -10 11 -17 4 -21 3 -13 -5z"/>
<path d="M2596 3591 l-29 -6 49 -27 c44 -24 51 -25 69 -12 19 15 19 15 -7 9
-34 -9 -60 5 -32 17 13 5 7 6 -16 3 -35 -6 -35 -6 -10 9 27 16 22 17 -24 7z"/>
<path d="M3052 3574 c10 -10 20 -16 22 -13 3 3 -5 11 -17 18 -21 13 -21 12 -5
-5z"/>
<path d="M2113 3573 c-9 -3 -5 -16 14 -41 33 -45 60 -72 70 -72 4 1 -2 9 -15
20 -12 10 -22 22 -21 27 4 23 -14 51 -29 46 -11 -5 -14 -2 -9 10 3 9 5 17 4
16 -1 0 -8 -3 -14 -6z"/>
<path d="M3890 3566 l-25 -14 27 1 c14 1 24 5 22 9 -2 3 2 9 8 11 7 3 9 6 3 6
-5 0 -21 -6 -35 -13z"/>
<path d="M1957 3488 c-52 -215 -38 -507 35 -703 30 -82 92 -215 99 -215 5 0 9
-6 9 -12 0 -7 26 -50 58 -94 233 -331 588 -529 987 -551 370 -20 711 113 977
379 113 113 187 216 253 353 63 131 65 155 3 45 -203 -362 -541 -595 -949
-656 -295 -43 -650 37 -863 195 -191 143 -361 430 -505 856 -38 113 -82 267
-78 271 2 2 32 -69 67 -157 140 -352 316 -655 460 -787 54 -51 122 -102 135
-102 30 0 66 162 66 295 0 80 -5 115 -24 172 -25 74 -79 157 -124 193 -87 68
-416 390 -503 493 -19 22 -46 54 -60 70 l-26 29 -17 -74z"/>
<path d="M2268 3553 c6 -2 18 -2 25 0 6 3 1 5 -13 5 -14 0 -19 -2 -12 -5z"/>
<path d="M2360 3550 c0 -5 5 -10 11 -10 5 0 7 5 4 10 -3 6 -8 10 -11 10 -2 0
-4 -4 -4 -10z"/>
<path d="M2312 3534 c-7 -8 -8 -14 -3 -14 10 0 25 19 20 25 -2 1 -10 -3 -17
-11z"/>
<path d="M3075 3540 c-3 -5 -2 -10 4 -10 5 0 13 5 16 10 3 6 2 10 -4 10 -5 0
-13 -4 -16 -10z"/>
<path d="M4361 3534 c0 -11 3 -14 6 -6 3 7 2 16 -1 19 -3 4 -6 -2 -5 -13z"/>
<path d="M2410 3530 c8 -5 22 -9 30 -9 10 0 8 3 -5 9 -27 12 -43 12 -25 0z"/>
<path d="M2211 3497 c-13 -21 -12 -21 5 -5 10 10 16 20 13 22 -3 3 -11 -5 -18
-17z"/>
<path d="M2690 3516 c0 -2 7 -7 16 -10 8 -3 12 -2 9 4 -6 10 -25 14 -25 6z"/>
<path d="M2740 3502 c0 -11 34 -42 46 -42 4 0 -2 7 -14 16 -12 8 -20 20 -17
25 4 5 1 9 -4 9 -6 0 -11 -4 -11 -8z"/>
<path d="M3785 3500 c-3 -5 1 -10 9 -10 9 0 16 5 16 10 0 6 -4 10 -9 10 -6 0
-13 -4 -16 -10z"/>
<path d="M4355 3500 c-3 -5 1 -10 9 -10 9 0 16 5 16 10 0 6 -4 10 -9 10 -6 0
-13 -4 -16 -10z"/>
<path d="M2506 3485 c-3 -8 -1 -15 4 -15 13 0 22 18 11 24 -5 3 -11 -1 -15 -9z"/>
<path d="M3147 3491 c6 -7 9 -20 6 -27 -3 -10 0 -12 10 -8 9 3 21 -4 31 -18 9
-12 16 -18 16 -12 0 5 -17 26 -37 45 -21 18 -33 28 -26 20z"/>
<path d="M4275 3490 c-8 -13 5 -13 25 0 13 8 13 10 -2 10 -9 0 -20 -4 -23 -10z"/>
<path d="M2553 3467 c0 -8 5 -14 11 -14 6 0 22 -3 36 -7 21 -6 19 -4 -8 13
-38 25 -39 25 -39 8z"/>
<path d="M3124 3469 c-3 -6 -2 -15 3 -20 5 -5 9 -1 9 11 0 23 -2 24 -12 9z"/>
<path d="M3745 3471 c6 -11 4 -13 -8 -8 -8 3 -20 0 -26 -7 -9 -10 -5 -13 18
-12 27 1 35 16 16 33 -4 5 -5 2 0 -6z"/>
<path d="M4358 3473 c6 -2 18 -2 25 0 6 3 1 5 -13 5 -14 0 -19 -2 -12 -5z"/>
<path d="M4288 3463 c-10 -2 -18 -9 -18 -14 0 -13 12 -11 34 6 20 15 16 17
-16 8z"/>
<path d="M2219 3426 c14 -15 26 -26 28 -26 9 0 -24 40 -37 45 -8 4 -4 -5 9
-19z"/>
<path d="M2820 3431 c0 -6 4 -11 8 -11 5 0 19 -9 32 -20 32 -28 46 -25 18 4
-13 13 -25 22 -27 20 -2 -2 -10 1 -18 7 -9 9 -13 8 -13 0z"/>
<path d="M4238 3433 c7 -3 16 -2 19 1 4 3 -2 6 -13 5 -11 0 -14 -3 -6 -6z"/>
<path d="M4153 3415 c0 -7 6 -11 14 -8 7 3 13 6 13 8 0 2 -6 5 -13 8 -8 3 -14
-1 -14 -8z"/>
<path d="M2647 3413 c-4 -3 -7 -10 -7 -14 0 -13 59 -41 70 -34 6 3 10 1 10 -5
0 -6 5 -8 11 -5 6 4 -6 19 -28 36 -41 31 -46 33 -56 22z m40 -23 c14 -11 21
-20 15 -20 -12 0 -60 39 -49 40 5 0 20 -9 34 -20z"/>
<path d="M3215 3410 c-3 -5 -1 -10 4 -10 6 0 11 5 11 10 0 6 -2 10 -4 10 -3 0
-8 -4 -11 -10z"/>
<path d="M3639 3400 c-13 -10 -19 -19 -13 -20 6 0 19 9 29 20 23 26 14 26 -16
0z"/>
<path d="M2270 3406 c0 -2 12 -12 28 -21 l27 -18 -19 21 c-17 20 -36 29 -36
18z"/>
<path d="M4110 3400 c8 -5 20 -10 25 -10 6 0 3 5 -5 10 -8 5 -19 10 -25 10 -5
0 -3 -5 5 -10z"/>
<path d="M2320 3326 c58 -60 160 -129 160 -108 0 4 -15 13 -32 20 -27 10 -30
14 -18 23 11 7 9 8 -10 4 -20 -5 -32 1 -53 25 -15 17 -25 35 -22 40 3 5 0 7
-8 4 -8 -3 -21 3 -28 13 -8 10 -23 24 -34 32 -11 8 9 -16 45 -53z"/>
<path d="M3569 3343 c-22 -24 -26 -31 -11 -20 21 14 59 57 50 57 -2 0 -20 -16
-39 -37z"/>
<path d="M4375 3370 c-17 -8 -17 -9 7 -7 15 1 24 5 22 9 -3 4 -6 8 -7 7 -1 0
-11 -4 -22 -9z"/>
<path d="M2910 3365 c0 -5 12 -21 25 -34 14 -13 25 -18 25 -12 0 6 1 14 3 18
1 3 -7 7 -17 9 -10 1 -23 9 -27 16 -5 7 -9 9 -9 3z"/>
<path d="M3002 3340 c0 -14 2 -19 5 -12 2 6 2 18 0 25 -3 6 -5 1 -5 -13z"/>
<path d="M4030 3350 c-8 -5 -10 -10 -5 -10 6 0 17 5 25 10 8 5 11 10 5 10 -5
0 -17 -5 -25 -10z"/>
<path d="M3032 3330 c0 -14 2 -19 5 -12 2 6 2 18 0 25 -3 6 -5 1 -5 -13z"/>
<path d="M4220 3318 c-83 -33 -86 -35 -76 -45 4 -4 10 -3 14 2 8 12 57 35 73
35 6 0 7 -4 4 -10 -3 -6 1 -7 10 -3 13 5 14 7 3 14 -10 6 -8 9 7 9 22 0 52 16
45 23 -3 3 -39 -8 -80 -25z"/>
<path d="M2726 3324 c-3 -8 -2 -12 4 -9 5 3 20 1 32 -6 l23 -11 -22 21 c-26
25 -29 26 -37 5z"/>
<path d="M3280 3329 c0 -5 5 -7 10 -4 6 3 10 8 10 11 0 2 -4 4 -10 4 -5 0 -10
-5 -10 -11z"/>
<path d="M2799 3312 c7 -13 19 -26 27 -29 8 -3 14 -11 14 -19 0 -8 5 -14 10
-14 18 0 10 16 -26 51 -28 26 -34 29 -25 11z"/>
<path d="M3954 3311 c-18 -11 -35 -24 -38 -30 -10 -15 0 -14 16 2 7 7 29 20
48 30 19 9 28 17 20 17 -8 0 -29 -9 -46 -19z"/>
<path d="M4402 3310 c0 -14 2 -19 5 -12 2 6 2 18 0 25 -3 6 -5 1 -5 -13z"/>
<path d="M2370 3311 c0 -5 7 -12 16 -15 14 -5 15 -4 4 9 -14 17 -20 19 -20 6z"/>
<path d="M3297 3313 c-4 -3 -7 -11 -7 -17 0 -6 5 -5 12 2 6 6 9 14 7 17 -3 3
-9 2 -12 -2z"/>
<path d="M3570 3309 c0 -5 5 -7 10 -4 6 3 10 8 10 11 0 2 -4 4 -10 4 -5 0 -10
-5 -10 -11z"/>
<path d="M2975 3300 c3 -5 8 -10 11 -10 2 0 4 5 4 10 0 6 -5 10 -11 10 -5 0
-7 -4 -4 -10z"/>
<path d="M4278 3293 c7 -3 16 -2 19 1 4 3 -2 6 -13 5 -11 0 -14 -3 -6 -6z"/>
<path d="M3496 3269 c-11 -10 -17 -21 -14 -24 7 -7 38 23 38 36 0 12 -2 11
-24 -12z"/>
<path d="M3030 3237 c47 -49 69 -61 48 -27 -7 11 -18 20 -25 20 -6 0 -18 8
-25 18 -7 10 -20 22 -28 26 -8 5 5 -12 30 -37z"/>
<path d="M3322 3268 c2 -6 10 -14 16 -16 7 -2 10 2 6 12 -7 18 -28 22 -22 4z"/>
<path d="M3854 3266 c23 -19 32 -20 42 -5 4 7 1 10 -7 7 -8 -3 -23 -1 -34 4
-20 9 -20 9 -1 -6z"/>
<path d="M4077 3251 c-21 -13 -25 -20 -15 -25 7 -3 0 -4 -17 -1 -25 4 -27 3
-12 -6 21 -13 48 -5 45 13 -2 7 7 14 20 16 12 2 22 8 22 13 0 14 -12 11 -43
-10z"/>
<path d="M4405 3250 c-3 -11 -2 -28 4 -37 8 -15 10 -11 11 20 0 41 -5 47 -15
17z"/>
<path d="M2886 3236 c6 -15 4 -17 -7 -11 -8 5 -11 5 -6 -1 5 -5 12 -9 15 -9 4
0 13 -4 20 -8 19 -12 14 1 -9 26 -18 19 -19 19 -13 3z"/>
<path d="M3843 3235 c0 -8 4 -12 9 -9 5 3 6 10 3 15 -9 13 -12 11 -12 -6z"/>
<path d="M3373 3206 c0 -18 3 -24 9 -18 7 7 7 16 0 28 -8 14 -9 13 -9 -10z"/>
<path d="M3994 3209 c-3 -6 -3 -13 0 -16 3 -4 6 -1 6 5 0 6 7 9 15 6 8 -4 15
-4 15 -1 0 11 -30 16 -36 6z"/>
<path d="M3338 3203 c7 -3 16 -2 19 1 4 3 -2 6 -13 5 -11 0 -14 -3 -6 -6z"/>
<path d="M3100 3185 c-7 -9 -10 -18 -7 -21 3 -3 10 4 17 15 13 25 8 27 -10 6z"/>
<path d="M3516 3187 c3 -10 9 -15 12 -12 3 3 0 11 -7 18 -10 9 -11 8 -5 -6z"/>
<path d="M3760 3188 c0 -14 16 -16 33 -3 17 12 16 13 -7 11 -15 0 -26 -4 -26
-8z"/>
<path d="M2622 3176 c7 -8 15 -12 17 -11 5 6 -10 25 -20 25 -5 0 -4 -6 3 -14z"/>
<path d="M2930 3180 c0 -5 5 -10 11 -10 5 0 7 5 4 10 -3 6 -8 10 -11 10 -2 0
-4 -4 -4 -10z"/>
<path d="M2546 3166 c10 -8 21 -12 24 -10 5 6 -21 24 -34 24 -6 0 -1 -6 10
-14z"/>
<path d="M3412 3148 c14 -18 35 -52 48 -75 13 -24 25 -41 27 -39 7 6 -80 146
-90 146 -5 0 2 -15 15 -32z"/>
<path d="M3546 3165 c-4 -11 -2 -14 6 -9 8 5 9 2 5 -10 -4 -9 0 -31 9 -48 14
-28 17 -29 26 -14 5 10 7 20 4 23 -3 4 -6 0 -6 -8 0 -12 -2 -12 -10 1 -5 8 -5
17 -1 20 4 3 0 18 -9 33 -14 23 -19 25 -24 12z"/>
<path d="M3580 3175 c0 -5 5 -17 10 -25 5 -8 10 -10 10 -5 0 6 -5 17 -10 25
-5 8 -10 11 -10 5z"/>
<path d="M3939 3163 c-13 -15 -12 -15 9 -4 23 12 28 21 13 21 -5 0 -15 -7 -22
-17z"/>
<path d="M4411 3149 c-1 -31 -5 -37 -33 -46 l-33 -11 33 2 c36 1 48 22 39 67
-3 17 -5 13 -6 -12z"/>
<path d="M2586 3154 c-5 -12 -2 -15 10 -10 9 4 24 1 32 -6 12 -10 14 -10 8 -1
-4 7 -15 17 -26 23 -14 7 -19 6 -24 -6z"/>
<path d="M2951 3151 c-9 -6 -10 -11 -2 -15 6 -4 11 -1 11 6 0 7 10 -2 23 -19
12 -18 26 -33 30 -33 8 0 -28 56 -41 64 -5 3 -14 1 -21 -3z"/>
<path d="M3725 3149 c-11 -17 1 -21 15 -4 8 9 8 15 2 15 -6 0 -14 -5 -17 -11z"/>
<path d="M3889 3133 c-13 -15 -12 -15 7 -5 12 6 25 8 29 4 5 -4 5 -1 1 6 -10
16 -21 15 -37 -5z"/>
<path d="M2600 3126 c0 -2 11 -11 23 -19 19 -12 24 -13 24 -2 0 8 -4 12 -8 9
-4 -2 -10 0 -14 6 -6 9 -25 14 -25 6z"/>
<path d="M3684 3098 l-19 -23 23 19 c21 18 27 26 19 26 -2 0 -12 -10 -23 -22z"/>
<path d="M2663 3090 c-1 -10 4 -21 12 -23 9 -4 11 1 8 14 -7 26 -19 32 -20 9z"/>
<path d="M3140 3106 c0 -4 20 -37 45 -74 25 -37 45 -61 45 -53 0 7 -9 25 -20
41 -11 15 -17 30 -14 33 3 3 1 14 -5 24 -8 14 -11 15 -11 3 0 -11 -6 -8 -20 9
-11 13 -20 20 -20 17z"/>
<path d="M3844 3096 c-10 -8 -16 -18 -11 -22 4 -4 7 -2 7 4 0 7 6 12 14 12 8
0 18 5 21 10 9 15 -8 12 -31 -4z"/>
<path d="M4298 3103 c6 -2 18 -2 25 0 6 3 1 5 -13 5 -14 0 -19 -2 -12 -5z"/>
<path d="M3630 3086 c0 -2 7 -9 15 -16 9 -7 15 -8 15 -2 0 5 -7 12 -15 16 -8
3 -15 4 -15 2z"/>
<path d="M4310 3068 c0 -10 9 -9 35 2 17 8 16 8 -7 7 -16 -1 -28 -5 -28 -9z"/>
<path d="M3610 3060 c0 -6 -4 -8 -10 -5 -5 3 -10 1 -10 -5 0 -7 7 -9 16 -6 12
5 14 1 8 -16 -6 -21 -6 -21 10 -5 16 15 16 18 2 33 -9 9 -16 11 -16 4z"/>
<path d="M2706 3052 c-2 -4 2 -16 10 -27 8 -10 14 -14 14 -8 0 7 -5 15 -10 18
-6 4 -8 11 -5 16 4 5 4 9 1 9 -3 0 -7 -3 -10 -8z"/>
<path d="M3034 3048 c-4 -7 -3 -8 4 -4 7 4 17 -3 24 -18 6 -14 15 -26 20 -26
5 0 0 14 -12 30 -24 34 -26 35 -36 18z"/>
<path d="M3461 3030 c14 -31 19 -36 19 -24 0 6 -7 19 -16 30 -14 18 -14 18 -3
-6z"/>
<path d="M2758 3026 c-23 -17 -23 -18 11 -56 21 -24 30 -29 36 -20 5 7 4 11
-1 8 -5 -3 -19 7 -32 23 l-22 28 22 15 c12 9 18 16 13 16 -6 0 -18 -7 -27 -14z"/>
<path d="M4217 3026 c3 -4 -5 -5 -17 -1 -17 5 -21 4 -15 -6 6 -9 3 -11 -9 -6
-9 4 -15 3 -12 -2 3 -4 -6 -13 -21 -20 -14 -6 -24 -14 -21 -16 3 -3 36 10 73
29 48 24 61 34 43 33 -14 -1 -24 -6 -21 -11z"/>
<path d="M3727 2992 c-15 -16 -24 -31 -21 -35 4 -4 -2 -10 -12 -14 -25 -9 -44
-35 -36 -48 4 -5 7 -16 8 -23 2 -8 6 -17 10 -20 3 -4 4 9 0 29 -6 32 -3 39 19
53 14 9 25 24 25 32 0 11 6 14 16 10 9 -3 12 -2 9 5 -4 5 -1 16 5 24 21 26 5
16 -23 -13z"/>
<path d="M3504 2988 c9 -12 16 -32 16 -45 0 -12 5 -25 10 -28 6 -3 10 -15 10
-25 0 -27 21 -70 31 -64 5 3 9 10 9 15 0 6 -4 8 -9 5 -5 -3 -12 1 -15 10 -8
22 -8 26 3 19 5 -3 1 12 -9 32 -11 21 -24 53 -31 71 -6 17 -16 32 -21 32 -5 0
-2 -10 6 -22z"/>
<path d="M3086 2973 c-6 -14 -5 -15 5 -6 7 7 10 15 7 18 -3 3 -9 -2 -12 -12z"/>
<path d="M4368 2957 c3 -10 -1 -23 -9 -28 -11 -6 -11 -11 -2 -20 9 -9 13 -5
19 17 4 16 11 34 16 41 7 8 4 11 -10 10 -14 -1 -18 -6 -14 -20z"/>
<path d="M3230 2951 c0 -6 4 -13 10 -16 6 -3 7 1 4 9 -7 18 -14 21 -14 7z"/>
<path d="M4077 2946 c-4 -10 -1 -13 8 -9 8 3 12 9 9 14 -7 12 -11 11 -17 -5z"/>
<path d="M2815 2939 c-7 -10 55 -122 63 -115 2 2 -9 24 -24 48 -15 23 -27 51
-26 61 1 19 -4 22 -13 6z"/>
<path d="M4032 2934 c-21 -15 -22 -34 -1 -34 6 0 7 5 3 12 -5 7 -2 9 7 6 10
-4 15 1 15 13 0 11 -1 19 -1 19 0 0 -11 -7 -23 -16z"/>
<path d="M4280 2940 c-13 -8 -12 -10 3 -10 9 0 17 5 17 10 0 12 -1 12 -20 0z"/>
<path d="M4260 2905 c14 -8 30 -14 35 -14 6 0 -1 6 -15 14 -14 8 -29 14 -35
14 -5 0 1 -6 15 -14z"/>
<path d="M4205 2900 c-3 -6 1 -7 9 -4 18 7 21 14 7 14 -6 0 -13 -4 -16 -10z"/>
<path d="M4004 2892 c3 -5 0 -12 -6 -15 -7 -2 -10 -7 -7 -11 3 -4 12 0 18 8 9
11 9 16 0 22 -7 4 -9 3 -5 -4z"/>
<path d="M4344 2864 c0 -30 2 -33 9 -16 5 12 5 26 0 36 -7 12 -9 7 -9 -20z"/>
<path d="M3130 2869 c0 -5 4 -8 9 -5 5 4 15 -7 23 -24 7 -16 18 -32 25 -34 10
-4 10 -1 0 17 -27 49 -57 73 -57 46z"/>
<path d="M3341 2864 c0 -11 3 -14 6 -6 3 7 2 16 -1 19 -3 4 -6 -2 -5 -13z"/>
<path d="M3925 2871 c-3 -5 0 -13 6 -17 8 -4 9 -3 5 4 -4 7 -3 12 3 12 18 0
24 -23 10 -34 -8 -6 -21 -20 -29 -31 -8 -11 2 -5 23 14 33 31 35 35 19 47 -21
16 -29 17 -37 5z"/>
<path d="M3291 2855 c0 -11 4 -29 9 -40 l9 -20 0 20 c0 11 -4 29 -9 40 l-9 20
0 -20z"/>
<path d="M4093 2822 c-50 -40 -80 -72 -69 -72 4 0 14 7 23 15 8 8 18 13 23 10
4 -3 7 3 6 13 -1 11 6 16 17 16 10 -1 16 0 13 4 -3 3 9 16 26 29 18 12 27 23
21 23 -6 0 -33 -17 -60 -38z"/>
<path d="M3531 2834 c0 -11 3 -14 6 -6 3 7 2 16 -1 19 -3 4 -6 -2 -5 -13z"/>
<path d="M4323 2805 c0 -8 4 -12 9 -9 5 3 6 10 3 15 -9 13 -12 11 -12 -6z"/>
<path d="M2896 2787 c3 -10 9 -15 12 -12 3 3 0 11 -7 18 -10 9 -11 8 -5 -6z"/>
<path d="M3877 2767 c-9 -13 -23 -32 -32 -41 -9 -9 -13 -16 -8 -16 11 0 66 70
60 76 -2 3 -11 -6 -20 -19z"/>
<path d="M4271 2774 c0 -11 3 -14 6 -6 3 7 2 16 -1 19 -3 4 -6 -2 -5 -13z"/>
<path d="M2920 2763 c0 -12 5 -25 10 -28 6 -4 8 -10 6 -14 -3 -4 0 -13 5 -21
12 -20 2 47 -11 69 -8 13 -9 12 -10 -6z"/>
<path d="M3327 2755 c3 -16 10 -39 14 -50 l8 -20 0 20 c0 11 -6 34 -14 50
l-14 30 6 -30z"/>
<path d="M2795 2755 c4 -11 10 -28 12 -37 3 -10 9 -18 14 -18 13 0 11 6 -12
42 -12 18 -18 24 -14 13z"/>
<path d="M3711 2759 c-1 -8 6 -24 15 -35 15 -19 15 -19 6 1 -5 11 -12 27 -15
35 -5 13 -6 13 -6 -1z"/>
<path d="M3601 2744 c0 -11 3 -14 6 -6 3 7 2 16 -1 19 -3 4 -6 -2 -5 -13z"/>
<path d="M3989 2723 c-13 -16 -12 -17 4 -4 16 13 21 21 13 21 -2 0 -10 -8 -17
-17z"/>
<path d="M4258 2693 c-23 -49 -16 -53 11 -8 23 40 25 45 14 45 -5 -1 -16 -17
-25 -37z"/>
<path d="M3800 2715 c0 -18 19 -40 26 -32 4 4 0 15 -9 24 -9 10 -17 13 -17 8z"/>
<path d="M3726 2675 c4 -16 11 -37 15 -45 6 -10 7 -4 3 15 -4 17 -11 37 -15
45 -6 10 -7 4 -3 -15z"/>
<path d="M2801 2674 c0 -11 3 -14 6 -6 3 7 2 16 -1 19 -3 4 -6 -2 -5 -13z"/>
<path d="M2844 2650 c5 -22 14 -40 18 -40 4 0 8 -11 8 -25 0 -14 5 -25 10 -25
6 0 10 -13 10 -30 0 -16 5 -30 10 -30 14 0 3 41 -27 107 -12 28 -23 56 -23 62
0 5 -4 12 -9 15 -4 3 -3 -12 3 -34z"/>
<path d="M3615 2650 c7 -56 15 -65 12 -12 -1 23 -6 44 -10 49 -4 4 -5 -13 -2
-37z"/>
<path d="M3790 2651 c-5 -11 -17 -27 -26 -35 -8 -9 -14 -24 -12 -33 2 -12 12
0 30 35 15 28 25 52 23 52 -2 0 -9 -9 -15 -19z"/>
<path d="M3247 2635 c7 -35 32 -87 32 -65 0 8 -9 33 -19 55 -17 35 -19 36 -13
10z"/>
<path d="M3212 2630 c0 -14 2 -19 5 -12 2 6 2 18 0 25 -3 6 -5 1 -5 -13z"/>
<path d="M2821 2624 c0 -11 3 -14 6 -6 3 7 2 16 -1 19 -3 4 -6 -2 -5 -13z"/>
<path d="M2979 2626 c4 -6 11 -18 14 -26 3 -9 6 -5 6 11 1 16 -4 26 -14 26 -9
0 -11 -4 -6 -11z"/>
<path d="M4177 2624 c3 -7 9 -14 14 -14 14 0 10 17 -5 23 -10 4 -13 1 -9 -9z"/>
<path d="M4201 2597 c-13 -21 -12 -21 5 -5 10 10 16 20 13 22 -3 3 -11 -5 -18
-17z"/>
<path d="M3021 2594 c0 -11 3 -14 6 -6 3 7 2 16 -1 19 -3 4 -6 -2 -5 -13z"/>
<path d="M3890 2605 c0 -5 5 -17 10 -25 5 -8 10 -10 10 -5 0 6 -5 17 -10 25
-5 8 -10 11 -10 5z"/>
<path d="M2800 2588 c0 -9 5 -20 10 -23 13 -8 13 5 0 25 -8 13 -10 13 -10 -2z"/>
<path d="M2840 2576 c0 -9 5 -16 10 -16 6 0 10 4 10 9 0 6 -4 13 -10 16 -5 3
-10 -1 -10 -9z"/>
<path d="M3387 2555 c3 -22 7 -42 9 -44 8 -9 2 45 -6 64 -7 14 -8 8 -3 -20z"/>
<path d="M3421 2574 c0 -11 3 -14 6 -6 3 7 2 16 -1 19 -3 4 -6 -2 -5 -13z"/>
<path d="M3634 2579 c-3 -6 -1 -16 5 -22 8 -8 11 -5 11 11 0 24 -5 28 -16 11z"/>
<path d="M3611 2564 c0 -11 3 -14 6 -6 3 7 2 16 -1 19 -3 4 -6 -2 -5 -13z"/>
<path d="M3862 2555 c-17 -37 -14 -45 4 -12 9 16 14 31 11 33 -2 2 -9 -7 -15
-21z"/>
<path d="M4166 2554 c-23 -23 -20 -30 4 -9 11 10 20 20 20 22 0 7 -9 2 -24
-13z"/>
<path d="M3010 2512 c0 -17 4 -33 9 -36 5 -4 7 8 4 26 -7 44 -13 49 -13 10z"/>
<path d="M3031 2524 c0 -11 3 -14 6 -6 3 7 2 16 -1 19 -3 4 -6 -2 -5 -13z"/>
<path d="M3651 2524 c0 -11 3 -14 6 -6 3 7 2 16 -1 19 -3 4 -6 -2 -5 -13z"/>
<path d="M3830 2511 c0 -6 4 -13 10 -16 6 -3 7 1 4 9 -7 18 -14 21 -14 7z"/>
<path d="M3911 2504 c0 -11 3 -14 6 -6 3 7 2 16 -1 19 -3 4 -6 -2 -5 -13z"/>
<path d="M4077 2468 c-26 -26 -44 -48 -39 -48 9 0 56 42 86 78 34 40 2 20 -47
-30z"/>
<path d="M3411 2494 c0 -11 3 -14 6 -6 3 7 2 16 -1 19 -3 4 -6 -2 -5 -13z"/>
<path d="M3282 2480 c0 -14 2 -19 5 -12 2 6 2 18 0 25 -3 6 -5 1 -5 -13z"/>
<path d="M3641 2495 c1 -19 18 -51 18 -35 0 8 -4 22 -9 30 -5 8 -9 11 -9 5z"/>
<path d="M3817 2483 c-2 -4 2 -21 9 -38 l13 -30 -3 33 c-3 34 -11 49 -19 35z"/>
<path d="M2906 2435 c17 -69 23 -81 19 -36 -2 24 -9 49 -15 55 -9 8 -10 3 -4
-19z"/>
<path d="M3412 2440 c0 -14 2 -19 5 -12 2 6 2 18 0 25 -3 6 -5 1 -5 -13z"/>
<path d="M3799 2448 c-7 -35 -7 -68 2 -68 6 0 9 6 6 13 -2 6 0 20 4 29 6 10 5
19 -1 23 -5 3 -10 5 -11 3z"/>
<path d="M2892 2390 c0 -14 2 -19 5 -12 2 6 2 18 0 25 -3 6 -5 1 -5 -13z"/>
<path d="M3417 2403 c-10 -9 -8 -55 2 -72 5 -8 8 3 7 33 0 25 -1 46 -2 46 0 0
-4 -3 -7 -7z"/>
<path d="M3821 2394 c0 -11 3 -14 6 -6 3 7 2 16 -1 19 -3 4 -6 -2 -5 -13z"/>
<path d="M3983 2383 c-29 -30 -12 -30 23 0 16 14 21 23 13 23 -8 0 -24 -11
-36 -23z"/>
<path d="M3031 2384 c0 -11 3 -14 6 -6 3 7 2 16 -1 19 -3 4 -6 -2 -5 -13z"/>
<path d="M3294 2340 c-1 -33 2 -60 7 -60 4 0 10 -24 12 -52 2 -29 3 -24 1 12
-2 36 -3 86 -3 113 0 69 -16 58 -17 -13z"/>
<path d="M3927 2374 c6 -15 23 -19 23 -5 0 5 -7 11 -14 14 -10 4 -13 1 -9 -9z"/>
<path d="M2781 2354 c0 -11 3 -14 6 -6 3 7 2 16 -1 19 -3 4 -6 -2 -5 -13z"/>
<path d="M3790 2334 c0 -8 5 -12 10 -9 6 4 8 11 5 16 -9 14 -15 11 -15 -7z"/>
<path d="M3917 2329 c-5 -20 -5 -20 16 -3 12 11 24 20 26 21 2 2 -5 3 -16 3
-13 0 -23 -8 -26 -21z"/>
<path d="M2760 2321 c0 -25 6 -27 13 -6 4 8 2 17 -3 20 -6 4 -10 -3 -10 -14z"/>
<path d="M3870 2300 c-8 -5 -10 -10 -5 -10 6 0 17 5 25 10 8 5 11 10 5 10 -5
0 -17 -5 -25 -10z"/>
<path d="M2942 2260 c0 -14 2 -19 5 -12 2 6 2 18 0 25 -3 6 -5 1 -5 -13z"/>
<path d="M2742 2257 c-9 -11 -10 -17 -2 -22 15 -9 23 -1 18 21 -3 15 -4 16
-16 1z"/>
<path d="M3785 2259 c-11 -17 1 -21 15 -4 8 9 8 15 2 15 -6 0 -14 -5 -17 -11z"/>
<path d="M3414 2236 c-3 -8 -4 -29 -2 -48 3 -29 4 -27 8 15 5 48 3 58 -6 33z"/>
<path d="M3295 2183 c1 -30 -3 -54 -9 -57 -6 -2 -2 -5 9 -5 14 -1 21 6 22 19
1 11 -2 20 -7 20 -5 0 -11 17 -13 38 -2 21 -3 14 -2 -15z"/>
<path d="M2775 2220 c4 -6 11 -8 16 -5 14 9 11 15 -7 15 -8 0 -12 -5 -9 -10z"/>
<path d="M2940 2216 c0 -9 -4 -14 -10 -11 -5 3 -10 1 -10 -4 0 -6 5 -11 10
-11 13 0 25 28 16 37 -3 4 -6 -1 -6 -11z"/>
<path d="M3628 2223 c7 -3 16 -2 19 1 4 3 -2 6 -13 5 -11 0 -14 -3 -6 -6z"/>
<path d="M2891 2208 c0 -10 -9 -18 -18 -18 -10 -1 -3 -7 16 -15 40 -18 52 -19
30 -2 -9 7 -19 21 -22 32 -4 17 -5 17 -6 3z"/>
<path d="M3660 2216 c0 -2 7 -7 16 -10 8 -3 12 -2 9 4 -6 10 -25 14 -25 6z"/>
<path d="M3630 2190 c-13 -9 -13 -10 0 -10 8 0 22 5 30 10 13 9 13 10 0 10 -8
0 -22 -5 -30 -10z"/>
<path d="M3528 2153 c6 -2 18 -2 25 0 6 3 1 5 -13 5 -14 0 -19 -2 -12 -5z"/>
<path d="M3243 2143 c9 -2 23 -2 30 0 6 3 -1 5 -18 5 -16 0 -22 -2 -12 -5z"/>
<path d="M3478 2143 c6 -2 18 -2 25 0 6 3 1 5 -13 5 -14 0 -19 -2 -12 -5z"/>
<path d="M3058 2133 c6 -2 18 -2 25 0 6 3 1 5 -13 5 -14 0 -19 -2 -12 -5z"/>
<path d="M3418 2133 c7 -3 16 -2 19 1 4 3 -2 6 -13 5 -11 0 -14 -3 -6 -6z"/>
<path d="M3118 2123 c12 -2 30 -2 40 0 9 3 -1 5 -23 4 -22 0 -30 -2 -17 -4z"/>
<path d="M3218 2123 c12 -2 30 -2 40 0 9 3 -1 5 -23 4 -22 0 -30 -2 -17 -4z"/>
</g>
</svg>
